<svg width="115" height="72" viewBox="0 0 115 72" fill="none" xmlns="http://www.w3.org/2000/svg">
<path fill-rule="evenodd" clip-rule="evenodd" d="M50.1318 38.5396C49.8359 38.3339 49.0193 37.7179 48.5317 37.0144C48.032 36.293 47.3051 35.2856 47.3051 35.2856C47.7465 34.2347 46.9873 33.266 46.0169 33.8246C46.4048 33.8409 46.6305 34.0859 46.5574 34.43C46.1352 33.9172 45.3219 34.1104 45.187 34.7252C45.4926 34.5462 46.0695 34.632 46.0784 35.0161C45.4041 34.7989 44.9207 35.3196 45.0408 35.804C45.3231 35.5013 45.9222 35.4549 46.3113 36.272C46.7213 37.1339 47.5308 38.6236 47.9575 39.2115C48.4498 39.8902 49.3522 40.3704 49.5566 40.4719C49.6711 39.7627 49.8374 39.0887 50.1318 38.5396Z" fill="#1C4E81"/>
<path fill-rule="evenodd" clip-rule="evenodd" d="M47.0537 27.5046C47.2282 26.6821 47.6161 25.609 48.1025 24.8626C47.7392 24.6815 46.7205 24.2528 46.009 23.5605C44.9578 22.5371 43.7793 20.8725 43.7793 20.8725C44.2098 19.313 42.9491 18.3056 41.7171 19.0976C42.2047 19.1035 42.5982 19.3665 42.5609 19.8358C41.9171 19.3568 40.9236 19.5843 40.6553 20.4101C41.1582 20.2195 41.7239 20.2317 41.8784 20.6929C40.9136 20.6343 40.5816 21.3882 40.7156 21.898C41.1775 21.49 42.1621 21.5696 42.4186 22.0788C43.0843 23.4007 44.6924 25.8002 45.0276 26.1623C45.8244 27.0227 47.0537 27.5046 47.0537 27.5046Z" fill="#1C4E81"/>
<path fill-rule="evenodd" clip-rule="evenodd" d="M37.8853 26.7872C39.2468 26.3895 40.0208 25.2211 40.0208 24.3469C40.0208 23.7072 39.6087 23.3811 39.1468 23.3811C38.1335 23.3811 38.6072 24.6661 37.8853 24.6661C37.1634 24.6661 37.637 23.3811 36.6228 23.3811C36.1618 23.3811 35.75 23.7072 35.75 24.3469C35.75 25.2211 36.5231 26.3895 37.8853 26.7872Z" fill="#1C4E81"/>
<path fill-rule="evenodd" clip-rule="evenodd" d="M42.7344 39.6257C44.0966 39.2277 44.87 38.0597 44.87 37.1851C44.87 36.5457 44.4578 36.2197 43.9963 36.2197C42.9832 36.2197 43.4563 37.5046 42.7344 37.5046C42.0128 37.5046 42.4865 36.2197 41.4728 36.2197C41.011 36.2197 40.5991 36.5457 40.5991 37.1851C40.5991 38.0597 41.3722 39.2277 42.7344 39.6257Z" fill="#1C4E81"/>
<path fill-rule="evenodd" clip-rule="evenodd" d="M42.7344 13.6477C44.0966 13.2498 44.87 12.0817 44.87 11.2071C44.87 10.5678 44.4578 10.2414 43.9963 10.2414C42.9832 10.2414 43.4563 11.5264 42.7344 11.5264C42.0128 11.5264 42.4865 10.2414 41.4728 10.2414C41.011 10.2414 40.5991 10.5678 40.5991 11.2071C40.5991 12.0817 41.3722 13.2498 42.7344 13.6477Z" fill="#1C4E81"/>
<path fill-rule="evenodd" clip-rule="evenodd" d="M49.9102 9.63845C50.6794 9.63845 51.4135 9.14288 51.8304 9.66035C51.8253 9.2698 51.5564 9.14376 51.1943 9.12512C50.5135 9.08991 49.5957 9.45649 49.2933 8.43073C49.2933 8.43073 48.8223 8.79257 49.0471 9.26743C49.1824 9.55265 49.5463 9.63845 49.9102 9.63845Z" fill="#1C4E81"/>
<path fill-rule="evenodd" clip-rule="evenodd" d="M49.8129 37.0111C50.6236 37.0111 51.1837 36.4889 51.6228 37.0342C51.6174 36.6226 51.334 36.4898 50.9523 36.47C50.2346 36.433 49.4816 36.8194 49.1629 35.7383C49.1629 35.7383 48.6665 36.1197 48.9035 36.62C49.0458 36.9206 49.4295 37.0111 49.8129 37.0111Z" fill="#1C4E81"/>
<path fill-rule="evenodd" clip-rule="evenodd" d="M77.6398 23.3811C76.6262 23.3811 77.0999 24.6661 76.3779 24.6661C75.6563 24.6661 76.13 23.3811 75.1164 23.3811C74.6545 23.3811 74.2427 23.7072 74.2427 24.3469C74.2427 25.2214 75.0158 26.3895 76.3779 26.7872C77.7404 26.3895 78.5135 25.2214 78.5135 24.3469C78.5135 23.7072 78.1017 23.3811 77.6398 23.3811Z" fill="#1C4E81"/>
<path fill-rule="evenodd" clip-rule="evenodd" d="M57.2073 20.0695C56.4854 20.0695 56.9591 18.7849 55.9446 18.7849C55.4836 18.7849 55.0718 19.1109 55.0718 19.7506C55.0718 20.6249 55.8458 21.793 57.2073 22.1909C58.5695 21.793 59.3426 20.6249 59.3426 19.7506C59.3426 19.1109 58.9308 18.7849 58.4689 18.7849C57.4559 18.7849 57.929 20.0695 57.2073 20.0695Z" fill="#1C4E81"/>
<path fill-rule="evenodd" clip-rule="evenodd" d="M57.2073 7.13452C58.5695 6.73658 59.3426 5.5685 59.3426 4.69421C59.3426 4.05455 58.9308 3.72821 58.4689 3.72821C57.4559 3.72821 57.929 5.01345 57.2073 5.01345C56.4854 5.01345 56.9591 3.72821 55.9446 3.72821C55.4836 3.72821 55.0718 4.05455 55.0718 4.69421C55.0718 5.5685 55.8458 6.73658 57.2073 7.13452Z" fill="#1C4E81"/>
<path fill-rule="evenodd" clip-rule="evenodd" d="M57.2073 32.9246C56.4854 32.9246 56.9591 31.6396 55.9446 31.6396C55.4836 31.6396 55.0718 31.966 55.0718 32.6054C55.0718 33.4799 55.8458 34.648 57.2073 35.046C58.5695 34.648 59.3426 33.4799 59.3426 32.6054C59.3426 31.966 58.9308 31.6396 58.4689 31.6396C57.4559 31.6396 57.929 32.9246 57.2073 32.9246Z" fill="#1C4E81"/>
<path fill-rule="evenodd" clip-rule="evenodd" d="M72.6163 36.2194C71.6026 36.2194 72.0763 37.5046 71.3544 37.5046C70.6325 37.5046 71.1056 36.2194 70.092 36.2194C69.631 36.2194 69.2183 36.5457 69.2183 37.1851C69.2183 38.0597 69.9922 39.2277 71.3544 39.6257C72.7166 39.2277 73.49 38.0597 73.49 37.1851C73.49 36.5457 73.0778 36.2194 72.6163 36.2194Z" fill="#1C4E81"/>
<path fill-rule="evenodd" clip-rule="evenodd" d="M71.3544 13.6477C72.7166 13.2498 73.49 12.0814 73.49 11.2071C73.49 10.5678 73.0778 10.2414 72.6163 10.2414C71.6026 10.2414 72.0763 11.5264 71.3544 11.5264C70.6325 11.5264 71.1056 10.2414 70.092 10.2414C69.631 10.2414 69.2183 10.5678 69.2183 11.2071C69.2183 12.0814 69.9922 13.2498 71.3544 13.6477Z" fill="#1C4E81"/>
<path fill-rule="evenodd" clip-rule="evenodd" d="M54.0651 7.01383L54.6498 5.9138L53.6267 6.30996L52.9515 5.51645L52.276 6.30996L51.2529 5.9138L51.8373 7.01383H54.0651Z" fill="#1C4E81"/>
<path fill-rule="evenodd" clip-rule="evenodd" d="M60.1965 43.9255C60.3986 43.7835 62.2918 42.2536 62.2918 42.2536C61.6658 41.8068 61.6519 40.6053 61.9901 40.0707C61.8658 39.8852 61.6569 39.626 61.4468 39.626C61.0684 39.626 60.4808 40.2142 60.4808 40.2142L60.3714 39.723C60.2725 39.8077 60.0506 40.0298 59.8214 40.2251C59.5418 40.463 59.2672 40.6589 59.2672 40.6589C59.2758 41.3027 59.4122 41.9187 60.2785 42.2116L59.2222 43.282C58.7672 43.2077 58.3423 43.4066 58.1024 43.6205C57.7553 43.9294 57.7583 44.4841 58.1314 44.8208C58.0778 44.58 58.1911 44.1826 58.5651 44.1246C58.3465 44.7519 58.6781 45.1939 59.3187 45.1193C59.0477 44.8537 58.9914 44.4368 59.3151 44.2297C59.3068 44.7871 59.9382 45.0587 60.4569 44.6599C59.9604 44.4998 59.9601 44.1098 60.1965 43.9255Z" fill="#1C4E81"/>
<path fill-rule="evenodd" clip-rule="evenodd" d="M53.9694 34.2785L54.5922 33.1057L53.5019 33.5285L52.7821 32.6826L52.0622 33.5285L50.9717 33.1057L51.5948 34.2785H53.9694Z" fill="#1C4E81"/>
<path fill-rule="evenodd" clip-rule="evenodd" d="M46.2783 22.3151C46.4656 22.6856 46.9703 22.7971 47.4754 22.7971C48.5426 22.7971 49.5615 22.1533 50.1397 22.8255C50.1329 22.3181 49.7598 22.1542 49.2571 22.1302C48.3124 22.0847 47.039 22.5607 46.6197 21.2281C46.6197 21.2281 45.9662 21.6983 46.2783 22.3151Z" fill="#1C4E81"/>
<path fill-rule="evenodd" clip-rule="evenodd" d="M51.6569 17.1898L50.7451 18.1931L49.3643 17.6919L50.153 19.0825H53.1605L53.9493 17.6919L52.5685 18.1931L51.6569 17.1898Z" fill="#1C4E81"/>
<path fill-rule="evenodd" clip-rule="evenodd" d="M59.2273 28.2209C58.6335 28.6183 58.5909 29.5272 59.283 30.1233C59.1732 29.6979 59.1841 29.0585 59.741 29.0467C59.2549 29.7171 59.9197 30.5281 60.8688 30.5414C60.5241 30.1293 60.3028 29.5494 60.815 29.3245C60.696 30.0849 61.7842 30.5695 62.6177 30.1174C61.841 29.7727 61.7685 29.2715 62.1626 29.1431C62.573 29.0094 62.8195 28.9848 63.5618 28.7916C64.6251 28.5147 65.7701 28.2831 65.7701 28.2831C65.0456 27.7179 64.3955 26.9244 64.7944 26.0558C64.6053 25.7996 63.9642 25.114 63.6778 25.114C63.1712 25.114 62.4191 25.9806 62.4191 25.9806L62.2472 25.2839C61.7679 25.4593 61.0836 26.0217 60.8123 26.3407C60.7161 27.1064 61.8798 27.4197 62.3712 27.6449L60.9626 28.1029C60.3815 27.9147 59.6194 27.9585 59.2273 28.2209Z" fill="#1C4E81"/>
<path fill-rule="evenodd" clip-rule="evenodd" d="M50.6221 20.5385C50.3795 20.5385 50.2422 20.3834 50.2422 20.0388H51.5609C51.5609 20.0388 51.0114 20.5385 50.6221 20.5385ZM74.3349 28.5742C74.3349 28.5742 73.8165 28.2816 72.9626 27.3759C72.0638 26.4224 71.7102 25.3759 71.7102 25.3759C69.9995 25.4182 68.9211 23.8818 68.3232 23.2033L68.3315 23.2039C68.8211 23.2584 69.7211 23.2868 70.1259 23.2868C71.6091 23.2868 72.5579 22.551 72.5579 21.3912C72.5579 20.2118 71.5907 19.5597 69.9487 19.5597C66.5728 19.5597 66.1633 19.9683 63.1056 19.9683C62.3153 19.9683 61.9043 19.4861 61.9043 18.894C61.9043 18.3017 62.4674 17.873 63.2431 17.873C65.376 17.873 66.4749 18.3846 68.9007 18.3846C70.9487 18.3846 71.8685 18.1701 73.1245 17.3008C74.4171 16.4061 74.8251 15.7286 74.6589 15.5218C74.492 15.3149 73.7633 15.517 72.5902 16.2117C71.1008 17.0934 70.7827 17.4795 69.03 17.4795C66.9542 17.4795 65.745 16.8975 63.1366 16.8975C61.744 16.8975 60.6729 17.6863 60.6729 18.939C60.6729 20.1106 61.5966 20.9592 63.1053 20.9592C66.1438 20.9592 66.7213 20.5311 69.9957 20.5311C70.9206 20.5311 71.3703 20.9604 71.3703 21.4551C71.3703 21.9018 71.0203 22.3332 70.0922 22.3332C68.1871 22.3332 67.016 21.8861 65.2121 21.8796L65.2107 21.879C65.2059 21.879 65.2009 21.8793 65.1959 21.8793C65.1885 21.8793 65.1817 21.879 65.1737 21.879L65.1757 21.8799C61.3511 21.8968 57.6365 24.646 54.6571 24.6782C54.6571 24.6782 54.8003 24.0264 54.7089 23.2415C54.3047 22.8613 53.7239 22.5734 52.9786 22.3974C53.4852 22.2628 54.1023 22.3225 54.5899 22.4953C54.5657 22.2841 54.516 22.0453 54.4663 21.9264C54.0044 21.5429 53.4139 21.361 52.7511 21.2456C53.1431 21.1326 53.7858 21.098 54.3328 21.2284C54.242 20.5293 53.6056 19.7967 53.1807 19.5944L50.1919 19.5902C50.1919 19.5902 48.6134 19.8216 48.4442 20.0719C48.3199 20.2556 48.5117 21.184 48.9131 21.5477C49.3996 21.2329 49.8318 21.1474 50.0987 21.1474C50.5031 21.1474 50.665 21.5116 50.665 22.0326C50.665 22.5533 50.3005 23.3643 49.8081 23.3643C49.2732 23.3643 48.8978 23.2107 48.6149 23.0125C48.2421 23.4238 48.2797 24.1238 48.4933 24.1883C48.6347 24.233 49.2235 24.2472 49.6167 24.0578C48.627 25.0028 47.9892 26.6659 47.7619 28.2624C47.7619 28.2624 44.4225 29.4881 42.0067 29.4822C41.2576 28.3183 39.5729 28.3671 39.0303 29.5656C39.3984 29.3032 39.9706 29.2822 40.2357 29.6535C39.1413 29.6532 38.6333 30.6805 39.3235 31.3346C39.2552 30.9334 39.9093 30.4426 40.4052 30.6476C39.7357 31.0509 39.9176 32.0752 40.8739 32.3992C40.6691 31.7864 41.0292 31.2651 41.8233 31.1926C44.5133 31.5515 49.736 31.2071 52.2987 30.7331L53.3293 29.7766C58.9478 28.655 60.5942 24.2827 63.3112 24.2827C64.2686 24.2827 64.9092 25.2028 65.7613 25.9922C66.321 26.5105 67.0675 26.9392 67.7137 27.0493C68.5877 27.1981 69.5907 27.1017 70.2433 27.0174L71.8256 28.5467C71.144 28.7449 70.9191 29.2727 70.9469 29.739C70.9795 30.2867 71.4206 30.7527 72.0632 30.8953C71.8644 30.5938 71.7434 29.9568 72.2538 29.7047C72.2579 30.6571 73.0428 31.1473 73.929 30.7491C73.4026 30.5142 73.1088 29.9748 73.4701 29.5438C73.7426 30.3038 74.7784 30.5589 75.3234 29.7772C74.0964 29.5384 74.3349 28.5742 74.3349 28.5742Z" fill="#1C4E81"/>
<path fill-rule="evenodd" clip-rule="evenodd" d="M52.1165 8.15911C51.9476 8.15911 51.852 8.04106 51.852 7.77892H52.771C52.771 7.77892 52.3878 8.15911 52.1165 8.15911ZM68.0185 13.669C68.0185 13.669 67.651 13.4909 67.135 12.8087C66.5998 12.1006 66.4202 11.4352 66.4202 11.4352C65.3193 11.5506 64.6491 10.9604 64.3266 10.3385C66.7841 10.6169 67.8247 9.78993 67.8247 8.76623C67.8247 7.84638 67.1374 7.36974 65.9131 7.36974C64.1905 7.36974 63.3929 7.90762 61.3555 7.90762C60.6904 7.90762 60.4247 7.69756 60.4247 7.35879C60.4247 7.02002 60.6964 6.79753 61.1467 6.79753C62.2266 6.79753 62.9503 6.92831 63.6867 6.87446C64.1287 6.84221 64.5755 6.74339 65.1068 6.51025C66.0589 6.15876 66.5501 5.51614 66.4282 5.31021C66.3057 5.10429 65.6131 5.29098 64.7678 5.80372C64.4145 6.01822 64.0855 6.11674 63.7334 6.15314C63.0509 6.22414 62.2834 6.06231 61.0907 6.06231C60.4165 6.06231 59.5582 6.36794 59.5582 7.3727C59.5582 8.37716 60.4168 8.67776 61.2872 8.67776C63.4831 8.67776 64.0994 8.14461 65.8444 8.14461C66.34 8.14461 66.9232 8.26473 66.9232 8.78783C66.9232 9.31062 66.3388 9.56536 65.3897 9.56536C63.897 9.56536 63.5876 9.2766 62.155 9.27541L62.1529 9.27453C59.5969 9.27453 57.0344 11.0479 55.1583 11.1737C55.1583 11.1737 55.2172 10.729 55.1563 10.0456C54.887 9.77513 54.5 9.5701 54.0036 9.44495C54.3411 9.34909 54.7524 9.39169 55.077 9.51447C55.0607 9.36417 55.0278 9.19464 54.9947 9.10973C54.687 8.83694 54.2935 8.70765 53.8521 8.62569C54.1133 8.54492 54.5411 8.52036 54.9059 8.61326C54.8453 8.11591 54.4213 7.5943 54.1382 7.45051L51.8186 7.44755C51.8186 7.44755 50.6937 7.61205 50.581 7.79016C50.4981 7.92094 50.6259 8.58161 50.8934 8.84049C51.2174 8.61622 51.5786 8.55557 51.7565 8.55557C52.0257 8.55557 52.1337 8.81475 52.1337 9.18517C52.1337 9.5559 51.9636 10.0402 51.6357 10.0402C51.2434 10.0402 50.9561 9.93105 50.7677 9.79022C50.5194 10.0825 50.5443 10.6902 50.6866 10.7361C50.781 10.7678 51.1656 10.7997 51.4274 10.6651C50.768 11.3376 50.3511 12.6512 50.1996 13.7871C50.1996 13.7871 48.2936 14.6445 45.7687 14.9392C45.2225 14.1492 44.1113 14.2472 43.7988 15.1155C44.0335 14.9152 44.4133 14.8794 44.6042 15.1336C43.8761 15.1735 43.6314 15.9342 44.0636 16.3614C44.0379 15.9942 44.4181 15.7061 44.7563 15.8336C44.3267 16.1445 44.4882 16.8656 45.137 17.0605C44.9728 16.6233 45.2077 16.2253 45.7595 16.157V16.1567C48.4356 16.1715 51.9121 15.8132 53.4805 15.3555L54.1669 14.6747C58.7824 13.698 59.1567 11.2178 60.9674 11.2178C61.605 11.2178 61.952 11.6397 62.5198 12.2012C62.8926 12.5702 63.3056 12.7433 63.7408 12.7847C64.2663 12.8347 64.9568 12.7276 65.3808 12.6764L66.3495 13.78C65.9063 13.956 65.7826 14.3424 65.824 14.672C65.8722 15.0587 66.1876 15.3664 66.622 15.4342C66.4749 15.2306 66.3637 14.785 66.6903 14.5794C66.7394 15.2552 67.285 15.562 67.8545 15.2333C67.493 15.0942 67.2717 14.7268 67.4906 14.4019C67.709 14.9271 68.4096 15.0543 68.7336 14.4711C67.9066 14.3655 68.0185 13.669 68.0185 13.669Z" fill="#1C4E81"/>
<path fill-rule="evenodd" clip-rule="evenodd" d="M51.8637 35.4208C51.6906 35.4208 51.5927 35.3025 51.5927 35.0398H52.5339C52.5339 35.0398 52.1415 35.4208 51.8637 35.4208ZM68.5965 41.5364C68.5965 41.5364 68.1595 41.2047 67.6165 40.6461C67.0982 40.113 66.7053 39.4825 66.7053 39.4825C65.736 39.7647 64.8446 38.2085 64.7162 37.9733C64.7526 37.9783 64.7884 37.9833 64.8259 37.9887C67.2772 38.336 68.066 37.478 68.066 36.5457C68.066 35.6134 67.3784 35.1111 66.1544 35.1111C64.4315 35.1111 64.0099 35.3273 61.9729 35.3273C61.3075 35.3273 61.0415 35.0773 61.0415 34.7037C61.0415 34.3297 61.3963 34.1374 61.8466 34.1374C62.8321 34.1374 64.4437 34.3776 65.9381 34.2962C67.1961 34.2276 67.8467 33.961 68.584 33.4974C69.4148 32.9743 69.5986 32.382 69.498 32.2654C69.4267 32.1838 69.04 32.1364 68.0222 32.8453C67.31 33.3418 66.8929 33.5356 65.9044 33.5992C64.7031 33.6767 63.2839 33.4021 61.7909 33.4021C61.1164 33.4021 60.1755 33.7134 60.1755 34.7173C60.1755 35.7211 61.0341 36.0975 61.9043 36.0975C64.1005 36.0975 64.3407 35.8859 66.0851 35.8859C66.5807 35.8859 67.1645 36.0167 67.1645 36.5158C67.1645 37.015 66.7233 37.2037 66.0686 37.2037C65.1552 37.2037 64.517 37.0848 63.8845 36.9919C63.496 36.9256 63.0262 36.8709 62.4131 36.8709C59.7518 36.8709 57.3559 38.3354 55.0171 38.5106C55.0171 38.5106 55.0993 37.9384 55.0194 37.4182C54.7393 37.1366 54.336 36.9232 53.8191 36.7928C54.1709 36.6931 54.5987 36.7374 54.9369 36.8653C54.92 36.7087 54.8857 36.5321 54.8514 36.4439C54.531 36.1599 54.1212 36.025 53.6617 35.9398C53.9336 35.8558 54.4147 35.8569 54.794 35.9534C54.6958 35.4439 54.2543 34.8664 53.9594 34.7164L51.5581 34.7131C51.5581 34.7131 50.3959 34.8847 50.2788 35.0699C50.1927 35.2063 50.3255 35.8939 50.6039 36.1635C50.9412 35.93 51.3084 35.8667 51.4933 35.8667C51.7738 35.8667 51.8862 36.1365 51.8862 36.5223C51.8862 36.9082 51.7093 37.4037 51.3679 37.4037C50.9252 37.4037 50.669 37.2898 50.4729 37.1431C50.2143 37.4478 50.2397 37.9691 50.3888 38.0141C50.569 38.0683 50.9622 38.0576 51.2347 37.9177C50.5486 38.6177 50.3016 39.7633 50.1439 40.9461C50.1439 40.9461 48.0743 41.1115 46.3222 41.1385C45.8482 40.2189 44.5546 40.3177 44.3691 41.1609C44.6236 40.9645 45.0206 40.9467 45.2064 41.221C44.4467 41.2254 44.1532 42.005 44.5816 42.4716C44.5322 42.1743 44.984 41.8074 45.3292 41.9574C44.8662 42.2592 44.9976 43.0181 45.6633 43.2539C45.5147 42.7903 45.7757 42.3935 46.3535 42.3503C48.0823 42.7619 51.3477 42.9151 53.4738 42.7489L54.1887 42.04C59.3912 41.0163 59.6287 38.8342 61.1101 38.8342C61.7223 38.8342 62.0844 39.1564 62.5566 39.6807C62.9797 40.1511 63.5271 40.6556 64.0289 40.7106C64.5599 40.7683 65.0413 40.7393 65.7979 40.6476L66.9858 41.8243C66.5372 42.0477 66.4047 42.4024 66.4523 42.7663C66.502 43.1495 66.8366 43.4788 67.2695 43.5462C67.1165 43.3344 66.9988 42.8787 67.3393 42.6645C67.3902 43.3681 67.9597 43.6797 68.5527 43.3373C68.1766 43.1924 67.9228 42.8267 68.1512 42.4885C68.3781 43.0353 69.1829 43.1211 69.5042 42.4515C68.5938 42.5586 68.5965 41.5364 68.5965 41.5364Z" fill="#1C4E81"/>
<path fill-rule="evenodd" clip-rule="evenodd" d="M50.2133 11.4844C49.8881 11.3326 49.1023 10.9669 48.641 10.3009C48.1413 9.57957 47.5238 8.68161 47.5238 8.68161C47.9653 7.63069 47.2061 6.66203 46.2353 7.22062C46.6235 7.2369 46.8493 7.48187 46.7762 7.82597C46.354 7.31323 45.5406 7.50643 45.4057 8.12124C45.7114 7.94254 46.2883 8.02804 46.2972 8.41208C45.6229 8.19491 45.1394 8.71564 45.2596 9.19997C45.5418 8.8973 46.141 8.85085 46.53 9.66833C46.9401 10.5299 47.7706 11.8486 48.1762 12.3885C48.5094 12.832 49.1319 13.2874 49.5952 13.4492C49.7135 12.7729 49.9215 12.0657 50.2133 11.4844Z" fill="#1C4E81"/>
<path fill-rule="evenodd" clip-rule="evenodd" d="M50.2133 11.4844C49.8881 11.3326 49.1023 10.9669 48.641 10.3009C48.1413 9.57957 47.5238 8.68161 47.5238 8.68161C47.9653 7.63069 47.2061 6.66203 46.2353 7.22062C46.6235 7.2369 46.8493 7.48187 46.7762 7.82597C46.354 7.31323 45.5406 7.50643 45.4057 8.12124C45.7114 7.94254 46.2883 8.02804 46.2972 8.41208C45.6229 8.19491 45.1394 8.71564 45.2596 9.19997C45.5418 8.8973 46.141 8.85085 46.53 9.66833C46.9401 10.5299 47.7789 11.8426 48.1762 12.3885" fill="#1C4E81"/>
<path fill-rule="evenodd" clip-rule="evenodd" d="M59.675 15.2756C59.9028 15.1058 61.5023 14.6167 62.4384 14.3196C61.9555 13.9173 61.6461 13.1791 61.9478 12.5101C61.804 12.3376 61.3913 11.8781 61.1463 11.8781C60.8286 11.8781 60.3475 12.4947 60.3475 12.4947L60.2383 11.9847C59.9427 12.1125 59.5197 12.4959 59.259 12.7353C59.2117 13.2486 59.4436 13.5598 60.1925 13.8912L58.8093 14.5841C58.422 14.4501 57.917 14.5764 57.6557 14.7631C57.2601 15.046 57.1441 15.6282 57.6048 16.0522C57.5317 15.7496 57.685 15.2948 58.0563 15.2862C57.7323 15.7632 58.0294 16.3401 58.6616 16.3499C58.4321 16.0567 58.4303 15.6439 58.7717 15.4839C58.6927 16.025 59.2714 16.3697 59.8268 16.0481C59.3093 15.8028 59.4522 15.4419 59.675 15.2756Z" fill="#1C4E81"/>
<path fill-rule="evenodd" clip-rule="evenodd" d="M57.1602 0C43.2645 0 32 11.2645 32 25.1602C32 39.0558 43.2645 50.3204 57.1602 50.3204C71.0558 50.3204 82.3204 39.0558 82.3204 25.1602C82.3204 11.2645 71.0558 0 57.1602 0ZM57.1602 1.50951C70.2011 1.50951 80.8109 12.1193 80.8109 25.1602C80.8109 38.2014 70.2011 48.8111 57.1602 48.8111C44.1193 48.8111 33.5095 38.2014 33.5095 25.1602C33.5095 12.1193 44.1193 1.50951 57.1602 1.50951Z" fill="#1C4E81"/>
<path fill-rule="evenodd" clip-rule="evenodd" d="M8.39915 62.0921L8.27777 62.1988L3.23812 62.0001V64.9173L7.34612 64.7035L7.88084 65.6494L7.34612 66.597L3.23812 66.3832V69.284L4.56584 69.5898V70.8571H0V69.5898L1.32902 69.284V62.0459L0 61.7401V60.4733H8.39915V62.0921Z" fill="#1C4E81"/>
<path fill-rule="evenodd" clip-rule="evenodd" d="M17.842 65.6645C17.842 63.3442 17.0326 62.0001 14.803 62.0001C12.5734 62.0001 11.764 63.3442 11.764 65.6645C11.764 67.9857 12.5734 69.3302 14.803 69.3302C17.0326 69.3302 17.842 67.9857 17.842 65.6645ZM9.7793 65.6645C9.7793 62.1219 11.4893 60.3203 14.803 60.3203C18.1167 60.3203 19.8275 62.1219 19.8275 65.6645C19.8275 69.208 18.1167 71.01 14.803 71.01C11.4893 71.01 9.7793 69.208 9.7793 65.6645Z" fill="#1C4E81"/>
<path fill-rule="evenodd" clip-rule="evenodd" d="M29.3322 69.2382V70.8571H21.4678V69.5898L22.7955 69.284V62.0459L21.4678 61.7401V60.4733H26.0336V61.7401L24.7055 62.0459V69.3302L29.2255 69.1315L29.3322 69.2382Z" fill="#1C4E81"/>
<path fill-rule="evenodd" clip-rule="evenodd" d="M41.4772 69.5898V70.8571H38.6684C38.0727 68.9337 37.0642 67.3754 35.9801 66.2601C35.3845 66.8406 34.7737 67.3443 34.1781 67.787V70.8571H30.9404V69.5898L32.2695 69.284V62.0459L30.9404 61.7401V60.4733H34.1781V65.7712C35.8272 64.3973 37.1415 62.7175 38.119 60.4733H40.9126V61.8174L39.4156 62.1068C38.7902 63.0993 38.0265 64.0915 37.2171 64.9929C38.3475 66.1383 39.4005 67.6038 40.2561 69.3454L41.4772 69.5898Z" fill="#1C4E81"/>
<path fill-rule="evenodd" clip-rule="evenodd" d="M46.5858 62.0001V64.8253L50.6938 64.6111L51.2285 65.5574L50.6938 66.505L46.5858 66.2908V69.3302L51.6254 69.1315L51.7472 69.2382V70.8571H43.3477V69.5898L44.6771 69.284V62.0459L43.3477 61.7401V60.4733H51.7472V62.0921L51.6254 62.1988L46.5858 62.0001Z" fill="#1C4E81"/>
<path fill-rule="evenodd" clip-rule="evenodd" d="M62.3958 62.0921L62.3051 62.1988L58.8696 62.0001V69.284L60.1977 69.5898V70.8571H55.6315V69.5898L56.9596 69.284V62.0001L53.5241 62.1988L53.4321 62.0921V60.4733H62.3958V62.0921Z" fill="#1C4E81"/>
<path fill-rule="evenodd" clip-rule="evenodd" d="M67.5028 62.0459V69.284L68.8309 69.5898V70.8571H64.2646V69.5898L65.5937 69.284V62.0459L64.2646 61.7401V60.4733H68.8309V61.7401L67.5028 62.0459Z" fill="#1C4E81"/>
<path fill-rule="evenodd" clip-rule="evenodd" d="M82.7323 61.7401L81.4032 62.0459V70.8571H79.1426L74.3478 62.6255V69.284L75.4781 69.5898V70.8571H71.187V69.5898L72.5152 69.284V62.0459L71.187 61.7401V60.4733H75.0812L79.5706 68.1688V62.0459L78.4403 61.7401V60.4733H82.7323V61.7401Z" fill="#1C4E81"/>
<path fill-rule="evenodd" clip-rule="evenodd" d="M93.9928 70.3072L92.4202 71.01C92.2224 70.826 92.0086 70.5824 91.8552 70.2766C91.2907 70.5971 90.3595 70.9953 89.1834 70.9953C86.3582 70.9953 84.1748 69.7418 84.1748 65.5574C84.1748 61.8783 86.1439 60.3203 89.4879 60.3203C90.8173 60.3203 91.8863 60.3959 93.0158 60.6559V62.4117L92.8789 62.5037C91.7943 62.2139 90.8022 62.0459 89.5043 62.0459C87.533 62.0459 86.1439 62.7024 86.1439 65.5738C86.1439 68.6279 87.4423 69.3151 89.443 69.3151C90.2675 69.3151 91.0311 69.1315 91.6565 68.9337V66.5201L89.351 66.6268L88.8935 65.6956L89.351 64.7644L93.4892 64.9471V68.8875C93.4892 69.4978 93.7492 69.9254 93.9928 70.3072Z" fill="#1C4E81"/>
<path fill-rule="evenodd" clip-rule="evenodd" d="M99.1771 62.0001V64.8253L103.284 64.6111L103.819 65.5574L103.284 66.505L99.1771 66.2908V69.3302L104.215 69.1315L104.339 69.2382V70.8571H95.939V69.5898L97.2671 69.284V62.0459L95.939 61.7401V60.4733H104.339V62.0921L104.215 62.1988L99.1771 62.0001Z" fill="#1C4E81"/>
<path fill-rule="evenodd" clip-rule="evenodd" d="M114.987 62.0921L114.895 62.1988L111.46 62.0001V69.284L112.787 69.5898V70.8571H108.221V69.5898L109.551 69.284V62.0001L106.115 62.1988L106.023 62.0921V60.4733H114.987V62.0921Z" fill="#1C4E81"/>
</svg>
