<svg width="900" height="982" viewBox="0 0 900 982" fill="none" xmlns="http://www.w3.org/2000/svg">
<g clip-path="url(#clip0_175_6)">
<rect width="900" height="982" fill="white"/>
<rect width="900" height="982" fill="#1C4E81"/>
<path fill-rule="evenodd" clip-rule="evenodd" d="M603.69 846.823C596.352 841.723 576.1 826.446 564.007 808.997C551.614 791.107 533.585 766.122 533.585 766.122C544.533 740.058 525.704 716.034 501.636 729.888C511.256 730.291 516.855 736.367 515.042 744.901C504.571 732.184 484.4 736.976 481.053 752.224C488.633 747.785 502.942 749.912 503.162 759.437C486.439 754.051 474.449 766.966 477.429 778.978C484.429 771.471 499.288 770.319 508.937 790.586C519.107 811.961 539.184 848.907 549.765 863.487C561.975 880.32 584.355 892.229 589.426 894.746C592.265 877.157 596.389 860.442 603.69 846.823Z" fill="#9AC1E9" fill-opacity="0.03"/>
<path fill-rule="evenodd" clip-rule="evenodd" d="M527.355 573.145C531.684 552.746 541.304 526.132 553.368 507.618C544.357 503.128 519.093 492.495 501.445 475.325C475.374 449.943 446.148 408.661 446.148 408.661C456.824 369.983 425.558 344.998 395.003 364.641C407.096 364.788 416.855 371.311 415.93 382.949C399.963 371.069 375.323 376.712 368.668 397.192C381.142 392.466 395.172 392.767 399.002 404.206C375.074 402.754 366.84 421.45 370.165 434.093C381.619 423.975 406.039 425.948 412.401 438.577C428.911 471.362 468.792 530.872 477.106 539.853C496.866 561.192 527.355 573.145 527.355 573.145Z" fill="#9AC1E9" fill-opacity="0.03"/>
<path fill-rule="evenodd" clip-rule="evenodd" d="M299.964 555.351C333.732 545.489 352.928 516.512 352.928 494.828C352.928 478.964 342.706 470.878 331.252 470.878C306.12 470.878 317.868 502.746 299.964 502.746C282.059 502.746 293.807 470.878 268.653 470.878C257.221 470.878 247.007 478.964 247.007 494.828C247.007 516.512 266.18 545.489 299.964 555.351Z" fill="#9AC1E9" fill-opacity="0.03"/>
<path fill-rule="evenodd" clip-rule="evenodd" d="M420.223 873.76C454.007 863.891 473.188 834.921 473.188 813.23C473.188 797.373 462.966 789.287 451.519 789.287C426.394 789.287 438.128 821.155 420.223 821.155C402.326 821.155 414.074 789.287 388.935 789.287C377.481 789.287 367.266 797.373 367.266 813.23C367.266 834.921 386.44 863.891 420.223 873.76Z" fill="#9AC1E9" fill-opacity="0.03"/>
<path fill-rule="evenodd" clip-rule="evenodd" d="M420.223 229.478C454.007 219.609 473.188 190.639 473.188 168.949C473.188 153.092 462.966 144.998 451.519 144.998C426.394 144.998 438.128 176.866 420.223 176.866C402.326 176.866 414.074 144.998 388.935 144.998C377.481 144.998 367.266 153.092 367.266 168.949C367.266 190.639 386.44 219.609 420.223 229.478Z" fill="#9AC1E9" fill-opacity="0.03"/>
<path fill-rule="evenodd" clip-rule="evenodd" d="M598.194 130.044C617.273 130.044 635.478 117.753 645.817 130.587C645.692 120.901 639.022 117.775 630.04 117.313C613.156 116.439 590.394 125.531 582.895 100.091C582.895 100.091 571.213 109.065 576.79 120.842C580.143 127.916 589.169 130.044 598.194 130.044Z" fill="#9AC1E9" fill-opacity="0.03"/>
<path fill-rule="evenodd" clip-rule="evenodd" d="M595.787 808.916C615.893 808.916 629.783 795.965 640.673 809.488C640.541 799.281 633.511 795.987 624.045 795.495C606.244 794.578 587.569 804.161 579.666 777.349C579.666 777.349 567.353 786.807 573.231 799.215C576.76 806.67 586.278 808.916 595.787 808.916Z" fill="#9AC1E9" fill-opacity="0.03"/>
<path fill-rule="evenodd" clip-rule="evenodd" d="M779.174 388.746C761.27 388.746 773.018 356.885 747.857 356.885C736.424 356.885 726.21 364.971 726.21 380.835C726.21 402.519 745.406 431.488 779.174 441.358C812.958 431.488 832.131 402.519 832.131 380.835C832.131 364.971 821.917 356.885 810.463 356.885C785.338 356.885 797.071 388.746 779.174 388.746Z" fill="#9AC1E9" fill-opacity="0.03"/>
<path fill-rule="evenodd" clip-rule="evenodd" d="M779.174 67.9441C812.958 58.0747 832.131 29.105 832.131 7.42181C832.131 -8.44254 821.917 -16.5361 810.463 -16.5361C785.338 -16.5361 797.071 15.3393 779.174 15.3393C761.27 15.3393 773.018 -16.5361 747.857 -16.5361C736.424 -16.5361 726.21 -8.44254 726.21 7.42181C726.21 29.105 745.406 58.0747 779.174 67.9441Z" fill="#9AC1E9" fill-opacity="0.03"/>
<path fill-rule="evenodd" clip-rule="evenodd" d="M779.174 707.566C761.27 707.566 773.018 675.698 747.857 675.698C736.424 675.698 726.21 683.792 726.21 699.649C726.21 721.339 745.406 750.309 779.174 760.178C812.958 750.309 832.131 721.339 832.131 699.649C832.131 683.792 821.917 675.698 810.463 675.698C785.338 675.698 797.071 707.566 779.174 707.566Z" fill="#9AC1E9" fill-opacity="0.03"/>
<path fill-rule="evenodd" clip-rule="evenodd" d="M701.239 64.9501L715.739 37.6682L690.365 47.4935L673.62 27.8135L656.867 47.4935L631.493 37.6682L645.985 64.9501H701.239Z" fill="#9AC1E9" fill-opacity="0.03"/>
<path fill-rule="evenodd" clip-rule="evenodd" d="M853.301 980.401C858.312 976.878 905.267 938.935 905.267 938.935C889.74 927.855 889.395 898.056 897.783 884.796C894.701 880.195 889.52 873.768 884.31 873.768C874.925 873.768 860.352 888.355 860.352 888.355L857.637 876.174C855.187 878.273 849.683 883.784 843.996 888.627C837.062 894.526 830.253 899.384 830.253 899.384C830.465 915.351 833.848 930.628 855.333 937.893L829.137 964.441C817.852 962.599 807.315 967.53 801.364 972.835C792.756 980.496 792.83 994.254 802.083 1002.6C800.755 996.632 803.565 986.777 812.84 985.339C807.417 1000.9 815.643 1011.86 831.529 1010.01C824.808 1003.42 823.414 993.08 831.441 987.944C831.236 1001.77 846.895 1008.5 859.758 998.613C847.445 994.643 847.438 984.972 853.301 980.401Z" fill="#9AC1E9" fill-opacity="0.03"/>
<path fill-rule="evenodd" clip-rule="evenodd" d="M698.869 741.144L714.315 712.057L687.275 722.543L669.422 701.564L651.569 722.543L624.522 712.057L639.975 741.144H698.869Z" fill="#9AC1E9" fill-opacity="0.03"/>
<path fill-rule="evenodd" clip-rule="evenodd" d="M508.123 444.44C512.767 453.627 525.286 456.393 537.811 456.393C564.279 456.393 589.55 440.426 603.888 457.097C603.72 444.513 594.467 440.448 582 439.853C558.57 438.723 526.988 450.53 516.59 417.48C516.59 417.48 500.381 429.14 508.123 444.44Z" fill="#9AC1E9" fill-opacity="0.03"/>
<path fill-rule="evenodd" clip-rule="evenodd" d="M641.524 317.327L618.909 342.209L584.663 329.779L604.226 364.267H678.815L698.377 329.779L664.132 342.209L641.524 317.327Z" fill="#9AC1E9" fill-opacity="0.03"/>
<path fill-rule="evenodd" clip-rule="evenodd" d="M829.277 590.91C814.55 600.764 813.493 623.306 830.656 638.092C827.934 627.54 828.205 611.683 842.015 611.39C829.959 628.017 846.447 648.13 869.987 648.46C861.438 638.239 855.95 623.857 868.651 618.28C865.701 637.138 892.69 649.157 913.361 637.945C894.099 629.397 892.301 616.966 902.075 613.782C912.253 610.465 918.365 609.856 936.776 605.064C963.148 598.196 991.545 592.451 991.545 592.451C973.575 578.436 957.453 558.756 967.345 537.212C962.656 530.857 946.755 513.855 939.652 513.855C927.09 513.855 908.437 535.348 908.437 535.348L904.174 518.067C892.286 522.419 875.314 536.368 868.585 544.278C866.2 563.268 895.06 571.039 907.248 576.623L872.313 587.982C857.901 583.315 838.999 584.401 829.277 590.91Z" fill="#9AC1E9" fill-opacity="0.03"/>
<path fill-rule="evenodd" clip-rule="evenodd" d="M615.849 400.376C609.832 400.376 606.427 396.531 606.427 387.983H639.132C639.132 387.983 625.506 400.376 615.849 400.376ZM1203.95 599.671C1203.95 599.671 1191.1 592.414 1169.92 569.953C1147.63 546.303 1138.86 520.349 1138.86 520.349C1096.43 521.399 1069.69 483.293 1054.86 466.468L1055.06 466.483C1067.21 467.833 1089.53 468.537 1099.56 468.537C1136.35 468.537 1159.88 450.288 1159.88 421.524C1159.88 392.275 1135.89 376.103 1095.17 376.103C1011.45 376.103 1001.29 386.236 925.453 386.236C905.854 386.236 895.662 374.276 895.662 359.593C895.662 344.902 909.626 334.27 928.865 334.27C981.764 334.27 1009.02 346.957 1069.18 346.957C1119.97 346.957 1142.78 341.637 1173.93 320.079C1205.99 297.889 1216.11 281.085 1211.99 275.956C1207.85 270.827 1189.78 275.839 1160.68 293.068C1123.74 314.935 1115.85 324.511 1072.39 324.511C1020.9 324.511 990.914 310.077 926.224 310.077C891.685 310.077 865.122 329.64 865.122 360.708C865.122 389.766 888.03 410.811 925.446 410.811C1000.81 410.811 1015.13 400.193 1096.34 400.193C1119.27 400.193 1130.43 410.84 1130.43 423.109C1130.43 434.189 1121.75 444.887 1098.73 444.887C1051.48 444.887 1022.44 433.8 977.699 433.639L977.662 433.624C977.544 433.624 977.42 433.631 977.295 433.631C977.111 433.631 976.943 433.624 976.745 433.624L976.796 433.646C881.94 434.064 789.814 502.247 715.922 503.047C715.922 503.047 719.474 486.882 717.206 467.414C707.183 457.985 692.779 450.846 674.295 446.48C686.857 443.141 702.164 444.623 714.256 448.908C713.655 443.669 712.422 437.748 711.189 434.798C699.735 425.288 685.089 420.775 668.652 417.914C678.375 415.111 694.312 414.252 707.88 417.488C705.627 400.149 689.844 381.98 679.307 376.961L605.18 376.859C605.18 376.859 566.033 382.597 561.835 388.804C558.754 393.361 563.509 416.387 573.466 425.405C585.529 417.598 596.25 415.477 602.869 415.477C612.899 415.477 616.913 424.51 616.913 437.432C616.913 450.347 607.873 470.46 595.663 470.46C582.396 470.46 573.084 466.651 566.069 461.735C556.824 471.935 557.756 489.296 563.054 490.895C566.561 492.003 581.163 492.356 590.915 487.659C566.37 511.096 550.55 552.342 544.914 591.937C544.914 591.937 462.093 622.338 402.179 622.191C383.6 593.324 341.819 594.535 328.361 624.26C337.489 617.751 351.681 617.23 358.255 626.439C331.113 626.432 318.514 651.909 335.633 668.133C333.938 658.183 350.162 646.009 362.46 651.094C345.854 661.096 350.367 686.499 374.083 694.534C369.005 679.338 377.935 666.408 397.63 664.611C464.345 673.511 593.872 664.97 657.432 653.215L682.99 629.492C822.335 601.674 863.17 493.236 930.553 493.236C954.298 493.236 970.185 516.057 991.317 535.634C1005.2 548.49 1023.71 559.122 1039.74 561.852C1061.42 565.543 1086.29 563.151 1102.48 561.06L1141.72 598.989C1124.81 603.905 1119.24 616.996 1119.93 628.56C1120.73 642.142 1131.68 653.699 1147.61 657.236C1142.68 649.759 1139.68 633.961 1152.34 627.709C1152.44 651.329 1171.91 663.488 1193.89 653.611C1180.83 647.785 1173.54 634.408 1182.5 623.717C1189.26 642.568 1214.95 648.893 1228.47 629.507C1198.04 623.585 1203.95 599.671 1203.95 599.671Z" fill="#9AC1E9" fill-opacity="0.03"/>
<path fill-rule="evenodd" clip-rule="evenodd" d="M652.912 93.3548C648.723 93.3548 646.352 90.427 646.352 83.9257H669.144C669.144 83.9257 659.641 93.3548 652.912 93.3548ZM1047.3 230.007C1047.3 230.007 1038.18 225.589 1025.39 208.668C1012.11 191.109 1007.66 174.606 1007.66 174.606C980.355 177.468 963.735 162.829 955.737 147.405C1016.68 154.31 1042.49 133.801 1042.49 108.412C1042.49 85.5987 1025.45 73.7775 995.082 73.7775C952.361 73.7775 932.578 87.1176 882.05 87.1176C865.555 87.1176 858.966 81.9078 858.966 73.506C858.966 65.1042 865.702 59.5861 876.87 59.5861C903.653 59.5861 921.601 62.8295 939.865 61.494C950.828 60.6942 961.908 58.2433 975.086 52.4611C998.699 43.7438 1010.88 27.8061 1007.86 22.699C1004.82 17.5919 987.641 22.222 966.677 34.9384C957.916 40.2584 949.756 42.7018 941.024 43.6044C924.096 45.3655 905.062 41.3517 875.483 41.3517C858.76 41.3517 837.473 48.9317 837.473 73.8509C837.473 98.7627 858.767 106.218 880.355 106.218C934.816 106.218 950.101 92.9952 993.38 92.9952C1005.67 92.9952 1020.13 95.9744 1020.13 108.948C1020.13 121.914 1005.64 128.231 982.101 128.231C945.082 128.231 937.407 121.07 901.877 121.04L901.826 121.018C838.434 121.018 774.882 165.001 728.353 168.12C728.353 168.12 729.813 157.091 728.301 140.141C721.624 133.434 712.026 128.349 699.713 125.245C708.085 122.867 718.285 123.924 726.335 126.969C725.931 123.242 725.117 119.037 724.295 116.931C716.663 110.166 706.904 106.959 695.956 104.926C702.435 102.923 713.046 102.314 722.093 104.618C720.589 92.2834 710.074 79.3469 703.052 75.7807L645.523 75.7073C645.523 75.7073 617.625 79.7871 614.829 84.2045C612.775 87.4478 615.945 103.833 622.578 110.254C630.613 104.692 639.572 103.187 643.982 103.187C650.66 103.187 653.338 109.615 653.338 118.802C653.338 127.997 649.119 140.009 640.989 140.009C631.259 140.009 624.134 137.301 619.459 133.808C613.303 141.058 613.919 156.13 617.449 157.267C619.79 158.052 629.329 158.845 635.823 155.506C619.467 172.185 609.128 204.765 605.371 232.935C605.371 232.935 558.101 254.2 495.48 261.508C481.934 241.916 454.373 244.345 446.625 265.881C452.444 260.914 461.865 260.026 466.598 266.329C448.54 267.32 442.471 286.185 453.192 296.781C452.554 287.675 461.983 280.528 470.37 283.69C459.715 291.402 463.722 309.284 479.814 314.12C475.741 303.275 481.567 293.405 495.252 291.71V291.703C561.623 292.07 647.842 283.184 686.74 271.832L703.764 254.948C818.233 230.726 827.516 169.213 872.423 169.213C888.236 169.213 896.843 179.677 910.925 193.604C920.17 202.754 930.414 207.047 941.208 208.074C954.24 209.314 971.366 206.658 981.881 205.388L1005.91 232.758C994.913 237.124 991.846 246.708 992.873 254.882C994.069 264.472 1001.89 272.104 1012.66 273.784C1009.02 268.736 1006.26 257.685 1014.36 252.585C1015.58 269.345 1029.11 276.954 1043.23 268.802C1034.27 265.353 1028.78 256.239 1034.21 248.183C1039.62 261.207 1057 264.362 1065.03 249.9C1044.52 247.28 1047.3 230.007 1047.3 230.007Z" fill="#9AC1E9" fill-opacity="0.03"/>
<path fill-rule="evenodd" clip-rule="evenodd" d="M646.646 769.475C642.353 769.475 639.924 766.54 639.924 760.024H663.266C663.266 760.024 653.536 769.475 646.646 769.475ZM1061.64 921.148C1061.64 921.148 1050.8 912.922 1037.33 899.068C1024.48 885.846 1014.73 870.209 1014.73 870.209C990.694 877.209 968.585 838.612 965.4 832.779C966.303 832.903 967.191 833.028 968.123 833.16C1028.92 841.775 1048.48 820.495 1048.48 797.374C1048.48 774.252 1031.43 761.793 1001.07 761.793C958.341 761.793 947.885 767.157 897.364 767.157C880.861 767.157 874.265 760.956 874.265 751.688C874.265 742.413 883.063 737.644 894.231 737.644C918.673 737.644 958.642 743.602 995.706 741.584C1026.91 739.882 1043.04 733.271 1061.33 721.772C1081.93 708.799 1086.49 694.109 1083.99 691.218C1082.23 689.192 1072.64 688.018 1047.39 705.6C1029.73 717.912 1019.38 722.719 994.869 724.296C965.077 726.219 929.878 719.409 892.851 719.409C876.121 719.409 852.787 727.129 852.787 752.026C852.787 776.923 874.081 786.257 895.662 786.257C950.13 786.257 956.089 781.01 999.352 781.01C1011.64 781.01 1026.12 784.254 1026.12 796.632C1026.12 809.011 1015.18 813.693 998.941 813.693C976.29 813.693 960.462 810.743 944.774 808.439C935.139 806.795 923.487 805.438 908.283 805.438C842.279 805.438 782.858 841.76 724.852 846.104C724.852 846.104 726.892 831.913 724.911 819.013C717.962 812.027 707.961 806.737 695.141 803.501C703.866 801.028 714.477 802.129 722.864 805.298C722.445 801.417 721.594 797.036 720.743 794.849C712.796 787.805 702.633 784.459 691.238 782.346C697.981 780.262 709.912 780.291 719.32 782.683C716.883 770.048 705.935 755.724 698.62 752.004L639.066 751.923C639.066 751.923 610.243 756.179 607.337 760.773C605.202 764.155 608.497 781.208 615.402 787.893C623.767 782.104 632.873 780.533 637.459 780.533C644.415 780.533 647.204 787.225 647.204 796.794C647.204 806.362 642.816 818.653 634.348 818.653C623.37 818.653 617.016 815.828 612.151 812.189C605.738 819.747 606.369 832.676 610.067 833.791C614.536 835.134 624.288 834.87 631.046 831.399C614.029 848.76 607.902 877.172 603.991 906.509C603.991 906.509 552.663 910.611 509.209 911.278C497.454 888.473 465.373 890.923 460.772 911.836C467.082 906.964 476.93 906.524 481.538 913.326C462.694 913.436 455.415 932.771 466.04 944.343C464.815 936.968 476.02 927.869 484.583 931.589C473.099 939.074 476.357 957.896 492.867 963.744C489.184 952.245 495.656 942.405 509.987 941.334C552.861 951.541 633.849 955.342 686.578 951.218L704.306 933.637C833.334 908.248 839.227 854.132 875.967 854.132C891.149 854.132 900.13 862.122 911.842 875.125C922.335 886.792 935.91 899.303 948.355 900.668C961.526 902.099 973.465 901.38 992.227 899.105L1021.69 928.288C1010.56 933.828 1007.28 942.626 1008.46 951.651C1009.69 961.153 1017.99 969.32 1028.73 970.993C1024.93 965.74 1022.01 954.439 1030.46 949.127C1031.72 966.576 1045.84 974.303 1060.55 965.813C1051.22 962.218 1044.93 953.148 1050.59 944.761C1056.22 958.321 1076.18 960.449 1084.15 943.844C1061.57 946.5 1061.64 921.148 1061.64 921.148Z" fill="#9AC1E9" fill-opacity="0.03"/>
<path fill-rule="evenodd" clip-rule="evenodd" d="M605.716 175.824C597.651 172.06 578.162 162.991 566.722 146.473C554.329 128.584 539.015 106.313 539.015 106.313C549.963 80.2494 531.134 56.2255 507.059 70.0792C516.686 70.4828 522.285 76.5585 520.472 85.0924C510.001 72.376 489.83 77.1676 486.484 92.4155C494.063 87.9835 508.372 90.1041 508.592 99.6286C491.869 94.2427 479.879 107.157 482.859 119.169C489.859 111.663 504.718 110.511 514.367 130.785C524.537 152.153 545.135 184.857 555.195 198.249C563.457 209.248 578.896 220.541 590.387 224.555C593.322 207.781 598.481 190.243 605.716 175.824Z" fill="#9AC1E9" fill-opacity="0.03"/>
<path fill-rule="evenodd" clip-rule="evenodd" d="M605.716 175.824C597.651 172.06 578.162 162.991 566.722 146.473C554.329 128.584 539.015 106.313 539.015 106.313C549.963 80.2495 531.134 56.2255 507.059 70.0792C516.686 70.4828 522.285 76.5585 520.472 85.0924C510.001 72.376 489.83 77.1676 486.484 92.4155C494.063 87.9835 508.372 90.1041 508.592 99.6286C491.869 94.2427 479.879 107.157 482.859 119.169C489.859 111.663 504.718 110.511 514.367 130.785C524.537 152.153 545.34 184.711 555.195 198.249" fill="#9AC1E9" fill-opacity="0.03"/>
<path fill-rule="evenodd" clip-rule="evenodd" d="M840.371 269.851C846.021 265.639 885.69 253.51 908.906 246.143C896.931 236.163 889.256 217.855 896.74 201.265C893.174 196.987 882.938 185.591 876.862 185.591C868.981 185.591 857.05 200.883 857.05 200.883L854.342 188.233C847.012 191.403 836.519 200.912 830.054 206.849C828.88 219.58 834.633 227.299 853.205 235.518L818.901 252.703C809.296 249.379 796.77 252.512 790.291 257.142C780.48 264.157 777.604 278.598 789.029 289.113C787.216 281.606 791.017 270.328 800.226 270.115C792.191 281.944 799.558 296.253 815.239 296.495C809.545 289.223 809.501 278.987 817.969 275.017C816.01 288.438 830.362 296.986 844.136 289.01C831.302 282.927 834.846 273.975 840.371 269.851Z" fill="#9AC1E9" fill-opacity="0.03"/>
<path fill-rule="evenodd" clip-rule="evenodd" d="M778 -109C433.372 -109 154 170.372 154 515C154 859.628 433.372 1139 778 1139C1122.63 1139 1402 859.628 1402 515C1402 170.372 1122.63 -109 778 -109ZM778 -71.5625C1101.43 -71.5625 1364.56 191.571 1364.56 515C1364.56 838.436 1101.43 1101.57 778 1101.57C454.571 1101.57 191.438 838.436 191.438 515C191.438 191.571 454.571 -71.5625 778 -71.5625Z" fill="#9AC1E9" fill-opacity="0.03"/>
<path d="M278.912 561.304V567.88H265.184V574.984H275.456V581.368H265.184V595H256.976V561.304H278.912ZM295.418 595.384C292.794 595.384 290.426 594.824 288.314 593.704C286.234 592.584 284.586 590.984 283.37 588.904C282.186 586.824 281.594 584.392 281.594 581.608C281.594 578.856 282.202 576.44 283.418 574.36C284.634 572.248 286.298 570.632 288.41 569.512C290.522 568.392 292.89 567.832 295.514 567.832C298.138 567.832 300.506 568.392 302.618 569.512C304.73 570.632 306.394 572.248 307.61 574.36C308.826 576.44 309.434 578.856 309.434 581.608C309.434 584.36 308.81 586.792 307.562 588.904C306.346 590.984 304.666 592.584 302.522 593.704C300.41 594.824 298.042 595.384 295.418 595.384ZM295.418 588.28C296.986 588.28 298.314 587.704 299.402 586.552C300.522 585.4 301.082 583.752 301.082 581.608C301.082 579.464 300.538 577.816 299.45 576.664C298.394 575.512 297.082 574.936 295.514 574.936C293.914 574.936 292.586 575.512 291.53 576.664C290.474 577.784 289.946 579.432 289.946 581.608C289.946 583.752 290.458 585.4 291.482 586.552C292.538 587.704 293.85 588.28 295.418 588.28ZM321.997 559.48V595H313.789V559.48H321.997ZM344.313 595L336.153 583.768V595H327.945V559.48H336.153V579.112L344.265 568.216H354.393L343.257 581.656L354.489 595H344.313ZM382.865 581.176C382.865 581.944 382.817 582.744 382.721 583.576H364.145C364.273 585.24 364.801 586.52 365.729 587.416C366.689 588.28 367.857 588.712 369.233 588.712C371.281 588.712 372.705 587.848 373.505 586.12H382.241C381.793 587.88 380.977 589.464 379.793 590.872C378.641 592.28 377.185 593.384 375.425 594.184C373.665 594.984 371.697 595.384 369.521 595.384C366.897 595.384 364.561 594.824 362.513 593.704C360.465 592.584 358.865 590.984 357.713 588.904C356.561 586.824 355.985 584.392 355.985 581.608C355.985 578.824 356.545 576.392 357.665 574.312C358.817 572.232 360.417 570.632 362.465 569.512C364.513 568.392 366.865 567.832 369.521 567.832C372.113 567.832 374.417 568.376 376.433 569.464C378.449 570.552 380.017 572.104 381.137 574.12C382.289 576.136 382.865 578.488 382.865 581.176ZM374.465 579.016C374.465 577.608 373.985 576.488 373.025 575.656C372.065 574.824 370.865 574.408 369.425 574.408C368.049 574.408 366.881 574.808 365.921 575.608C364.993 576.408 364.417 577.544 364.193 579.016H374.465ZM402.123 588.04V595H397.947C394.971 595 392.651 594.28 390.987 592.84C389.323 591.368 388.491 588.984 388.491 585.688V575.032H385.227V568.216H388.491V561.688H396.699V568.216H402.075V575.032H396.699V585.784C396.699 586.584 396.891 587.16 397.275 587.512C397.659 587.864 398.299 588.04 399.195 588.04H402.123ZM410.823 565.432C409.383 565.432 408.199 565.016 407.271 564.184C406.375 563.32 405.927 562.264 405.927 561.016C405.927 559.736 406.375 558.68 407.271 557.848C408.199 556.984 409.383 556.552 410.823 556.552C412.231 556.552 413.383 556.984 414.279 557.848C415.207 558.68 415.671 559.736 415.671 561.016C415.671 562.264 415.207 563.32 414.279 564.184C413.383 565.016 412.231 565.432 410.823 565.432ZM414.903 568.216V595H406.695V568.216H414.903ZM437.171 567.928C440.307 567.928 442.803 568.952 444.659 571C446.547 573.016 447.491 575.8 447.491 579.352V595H439.331V580.456C439.331 578.664 438.867 577.272 437.939 576.28C437.011 575.288 435.763 574.792 434.195 574.792C432.627 574.792 431.379 575.288 430.451 576.28C429.523 577.272 429.059 578.664 429.059 580.456V595H420.851V568.216H429.059V571.768C429.891 570.584 431.011 569.656 432.419 568.984C433.827 568.28 435.411 567.928 437.171 567.928ZM463.371 567.832C465.259 567.832 466.907 568.216 468.315 568.984C469.755 569.752 470.859 570.76 471.627 572.008V568.216H479.835V594.952C479.835 597.416 479.339 599.64 478.347 601.624C477.387 603.64 475.899 605.24 473.883 606.424C471.899 607.608 469.419 608.2 466.443 608.2C462.475 608.2 459.259 607.256 456.795 605.368C454.331 603.512 452.923 600.984 452.571 597.784H460.683C460.939 598.808 461.547 599.608 462.507 600.184C463.467 600.792 464.651 601.096 466.059 601.096C467.755 601.096 469.099 600.6 470.091 599.608C471.115 598.648 471.627 597.096 471.627 594.952V591.16C470.827 592.408 469.723 593.432 468.315 594.232C466.907 595 465.259 595.384 463.371 595.384C461.163 595.384 459.163 594.824 457.371 593.704C455.579 592.552 454.155 590.936 453.099 588.856C452.075 586.744 451.563 584.312 451.563 581.56C451.563 578.808 452.075 576.392 453.099 574.312C454.155 572.232 455.579 570.632 457.371 569.512C459.163 568.392 461.163 567.832 463.371 567.832ZM471.627 581.608C471.627 579.56 471.051 577.944 469.899 576.76C468.779 575.576 467.403 574.984 465.771 574.984C464.139 574.984 462.747 575.576 461.595 576.76C460.475 577.912 459.915 579.512 459.915 581.56C459.915 583.608 460.475 585.24 461.595 586.456C462.747 587.64 464.139 588.232 465.771 588.232C467.403 588.232 468.779 587.64 469.899 586.456C471.051 585.272 471.627 583.656 471.627 581.608ZM496.669 595.384C494.333 595.384 492.253 594.984 490.429 594.184C488.605 593.384 487.165 592.296 486.109 590.92C485.053 589.512 484.461 587.944 484.333 586.216H492.445C492.541 587.144 492.973 587.896 493.741 588.472C494.509 589.048 495.453 589.336 496.573 589.336C497.597 589.336 498.381 589.144 498.925 588.76C499.501 588.344 499.789 587.816 499.789 587.176C499.789 586.408 499.389 585.848 498.589 585.496C497.789 585.112 496.493 584.696 494.701 584.248C492.781 583.8 491.181 583.336 489.901 582.856C488.621 582.344 487.517 581.56 486.589 580.504C485.661 579.416 485.197 577.96 485.197 576.136C485.197 574.6 485.613 573.208 486.445 571.96C487.309 570.68 488.557 569.672 490.189 568.936C491.853 568.2 493.821 567.832 496.093 567.832C499.453 567.832 502.093 568.664 504.013 570.328C505.965 571.992 507.085 574.2 507.373 576.952H499.789C499.661 576.024 499.245 575.288 498.541 574.744C497.869 574.2 496.973 573.928 495.853 573.928C494.893 573.928 494.157 574.12 493.645 574.504C493.133 574.856 492.877 575.352 492.877 575.992C492.877 576.76 493.277 577.336 494.077 577.72C494.909 578.104 496.189 578.488 497.917 578.872C499.901 579.384 501.517 579.896 502.765 580.408C504.013 580.888 505.101 581.688 506.029 582.808C506.989 583.896 507.485 585.368 507.517 587.224C507.517 588.792 507.069 590.2 506.173 591.448C505.309 592.664 504.045 593.624 502.381 594.328C500.749 595.032 498.845 595.384 496.669 595.384ZM524.587 587.32L530.395 568.216H539.131L529.627 595H519.499L509.995 568.216H518.779L524.587 587.32ZM540.953 581.56C540.953 578.808 541.465 576.392 542.489 574.312C543.545 572.232 544.969 570.632 546.761 569.512C548.553 568.392 550.553 567.832 552.761 567.832C554.649 567.832 556.297 568.216 557.705 568.984C559.145 569.752 560.249 570.76 561.017 572.008V568.216H569.225V595H561.017V591.208C560.217 592.456 559.097 593.464 557.657 594.232C556.249 595 554.601 595.384 552.713 595.384C550.537 595.384 548.553 594.824 546.761 593.704C544.969 592.552 543.545 590.936 542.489 588.856C541.465 586.744 540.953 584.312 540.953 581.56ZM561.017 581.608C561.017 579.56 560.441 577.944 559.289 576.76C558.169 575.576 556.793 574.984 555.161 574.984C553.529 574.984 552.137 575.576 550.985 576.76C549.865 577.912 549.305 579.512 549.305 581.56C549.305 583.608 549.865 585.24 550.985 586.456C552.137 587.64 553.529 588.232 555.161 588.232C556.793 588.232 558.169 587.64 559.289 586.456C560.441 585.272 561.017 583.656 561.017 581.608ZM583.372 559.48V595H575.164V559.48H583.372ZM599.496 567.832C601.384 567.832 603.032 568.216 604.44 568.984C605.88 569.752 606.984 570.76 607.752 572.008V568.216H615.96V594.952C615.96 597.416 615.464 599.64 614.472 601.624C613.512 603.64 612.024 605.24 610.008 606.424C608.024 607.608 605.544 608.2 602.568 608.2C598.6 608.2 595.384 607.256 592.92 605.368C590.456 603.512 589.048 600.984 588.696 597.784H596.808C597.064 598.808 597.672 599.608 598.632 600.184C599.592 600.792 600.776 601.096 602.184 601.096C603.88 601.096 605.224 600.6 606.216 599.608C607.24 598.648 607.752 597.096 607.752 594.952V591.16C606.952 592.408 605.848 593.432 604.44 594.232C603.032 595 601.384 595.384 599.496 595.384C597.288 595.384 595.288 594.824 593.496 593.704C591.704 592.552 590.28 590.936 589.224 588.856C588.2 586.744 587.688 584.312 587.688 581.56C587.688 578.808 588.2 576.392 589.224 574.312C590.28 572.232 591.704 570.632 593.496 569.512C595.288 568.392 597.288 567.832 599.496 567.832ZM607.752 581.608C607.752 579.56 607.176 577.944 606.024 576.76C604.904 575.576 603.528 574.984 601.896 574.984C600.264 574.984 598.872 575.576 597.72 576.76C596.6 577.912 596.04 579.512 596.04 581.56C596.04 583.608 596.6 585.24 597.72 586.456C598.872 587.64 600.264 588.232 601.896 588.232C603.528 588.232 604.904 587.64 606.024 586.456C607.176 585.272 607.752 583.656 607.752 581.608ZM647.146 581.176C647.146 581.944 647.098 582.744 647.002 583.576H628.426C628.554 585.24 629.082 586.52 630.01 587.416C630.97 588.28 632.138 588.712 633.514 588.712C635.562 588.712 636.986 587.848 637.786 586.12H646.522C646.074 587.88 645.258 589.464 644.074 590.872C642.922 592.28 641.466 593.384 639.706 594.184C637.946 594.984 635.978 595.384 633.802 595.384C631.178 595.384 628.842 594.824 626.794 593.704C624.746 592.584 623.146 590.984 621.994 588.904C620.842 586.824 620.266 584.392 620.266 581.608C620.266 578.824 620.826 576.392 621.946 574.312C623.098 572.232 624.698 570.632 626.746 569.512C628.794 568.392 631.146 567.832 633.802 567.832C636.394 567.832 638.698 568.376 640.714 569.464C642.73 570.552 644.298 572.104 645.418 574.12C646.57 576.136 647.146 578.488 647.146 581.176ZM638.746 579.016C638.746 577.608 638.266 576.488 637.306 575.656C636.346 574.824 635.146 574.408 633.706 574.408C632.33 574.408 631.162 574.808 630.202 575.608C629.274 576.408 628.698 577.544 628.474 579.016H638.746ZM666.404 588.04V595H662.228C659.252 595 656.932 594.28 655.268 592.84C653.604 591.368 652.772 588.984 652.772 585.688V575.032H649.508V568.216H652.772V561.688H660.98V568.216H666.356V575.032H660.98V585.784C660.98 586.584 661.172 587.16 661.556 587.512C661.94 587.864 662.58 588.04 663.476 588.04H666.404Z" fill="white"/>
<path d="M424.115 643.336C426.973 641.203 429.235 639.272 430.899 637.544C432.563 635.795 433.395 634.163 433.395 632.648C433.395 632.136 433.277 631.741 433.043 631.464C432.829 631.187 432.541 631.048 432.179 631.048C431.752 631.048 431.411 631.272 431.155 631.72C430.92 632.147 430.835 632.808 430.899 633.704H424.019C424.083 631.72 424.509 630.088 425.299 628.808C426.109 627.528 427.155 626.589 428.435 625.992C429.715 625.395 431.123 625.096 432.659 625.096C435.389 625.096 437.384 625.757 438.643 627.08C439.923 628.381 440.563 630.056 440.563 632.104C440.563 634.259 439.869 636.285 438.483 638.184C437.117 640.061 435.4 641.651 433.331 642.952H440.659V648.68H424.115V643.336ZM442.368 636.968C442.368 633.277 443.146 630.376 444.704 628.264C446.282 626.152 448.704 625.096 451.968 625.096C455.21 625.096 457.621 626.163 459.2 628.296C460.778 630.408 461.568 633.299 461.568 636.968C461.568 640.659 460.778 643.571 459.2 645.704C457.621 647.816 455.21 648.872 451.968 648.872C448.704 648.872 446.282 647.816 444.704 645.704C443.146 643.571 442.368 640.659 442.368 636.968ZM454.56 636.968C454.56 635.261 454.389 633.981 454.048 633.128C453.706 632.253 453.013 631.816 451.968 631.816C450.901 631.816 450.197 632.253 449.856 633.128C449.514 633.981 449.344 635.261 449.344 636.968C449.344 638.696 449.514 639.997 449.856 640.872C450.197 641.725 450.901 642.152 451.968 642.152C453.013 642.152 453.706 641.725 454.048 640.872C454.389 639.997 454.56 638.696 454.56 636.968ZM463.427 643.336C466.286 641.203 468.547 639.272 470.211 637.544C471.875 635.795 472.707 634.163 472.707 632.648C472.707 632.136 472.59 631.741 472.355 631.464C472.142 631.187 471.854 631.048 471.491 631.048C471.065 631.048 470.723 631.272 470.467 631.72C470.233 632.147 470.147 632.808 470.211 633.704H463.331C463.395 631.72 463.822 630.088 464.611 628.808C465.422 627.528 466.467 626.589 467.747 625.992C469.027 625.395 470.435 625.096 471.971 625.096C474.702 625.096 476.697 625.757 477.955 627.08C479.235 628.381 479.875 630.056 479.875 632.104C479.875 634.259 479.182 636.285 477.795 638.184C476.43 640.061 474.713 641.651 472.643 642.952H479.971V648.68H463.427V643.336ZM481.552 643.336C484.411 641.203 486.672 639.272 488.336 637.544C490 635.795 490.832 634.163 490.832 632.648C490.832 632.136 490.715 631.741 490.48 631.464C490.267 631.187 489.979 631.048 489.616 631.048C489.19 631.048 488.848 631.272 488.592 631.72C488.358 632.147 488.272 632.808 488.336 633.704H481.456C481.52 631.72 481.947 630.088 482.736 628.808C483.547 627.528 484.592 626.589 485.872 625.992C487.152 625.395 488.56 625.096 490.096 625.096C492.827 625.096 494.822 625.757 496.08 627.08C497.36 628.381 498 630.056 498 632.104C498 634.259 497.307 636.285 495.92 638.184C494.555 640.061 492.838 641.651 490.768 642.952H498.096V648.68H481.552V643.336Z" fill="#9AC1E9"/>
<path fill-rule="evenodd" clip-rule="evenodd" d="M440.049 483.883C439.167 483.27 436.733 481.433 435.28 479.336C433.79 477.186 431.623 474.183 431.623 474.183C432.939 471.05 430.676 468.163 427.783 469.828C428.939 469.876 429.612 470.607 429.395 471.632C428.136 470.104 425.711 470.68 425.309 472.513C426.22 471.979 427.94 472.235 427.967 473.379C425.957 472.732 424.516 474.284 424.874 475.728C425.715 474.826 427.501 474.687 428.661 477.123C429.883 479.692 432.296 484.133 433.568 485.885C435.035 487.909 437.725 489.34 438.335 489.643C438.676 487.529 439.172 485.519 440.049 483.883Z" fill="white"/>
<path fill-rule="evenodd" clip-rule="evenodd" d="M430.874 450.988C431.395 448.537 432.551 445.338 434.001 443.113C432.918 442.573 429.881 441.295 427.76 439.231C424.627 436.181 421.114 431.219 421.114 431.219C422.397 426.57 418.639 423.567 414.967 425.928C416.42 425.946 417.593 426.73 417.482 428.128C415.563 426.701 412.601 427.379 411.801 429.84C413.301 429.272 414.987 429.308 415.447 430.683C412.571 430.509 411.582 432.756 411.981 434.276C413.358 433.059 416.293 433.297 417.058 434.814C419.042 438.755 423.836 445.908 424.835 446.987C427.21 449.552 430.874 450.988 430.874 450.988Z" fill="white"/>
<path fill-rule="evenodd" clip-rule="evenodd" d="M403.544 448.85C407.602 447.664 409.91 444.182 409.91 441.575C409.91 439.669 408.681 438.697 407.304 438.697C404.284 438.697 405.696 442.527 403.544 442.527C401.392 442.527 402.804 438.697 399.78 438.697C398.406 438.697 397.179 439.669 397.179 441.575C397.179 444.182 399.483 447.664 403.544 448.85Z" fill="white"/>
<path fill-rule="evenodd" clip-rule="evenodd" d="M417.998 487.12C422.058 485.934 424.364 482.452 424.364 479.845C424.364 477.939 423.135 476.967 421.759 476.967C418.74 476.967 420.15 480.798 417.998 480.798C415.847 480.798 417.259 476.967 414.237 476.967C412.861 476.967 411.633 477.939 411.633 479.845C411.633 482.452 413.937 485.934 417.998 487.12Z" fill="white"/>
<path fill-rule="evenodd" clip-rule="evenodd" d="M417.998 409.682C422.058 408.496 424.364 405.014 424.364 402.407C424.364 400.501 423.135 399.529 421.759 399.529C418.74 399.529 420.15 403.359 417.998 403.359C415.847 403.359 417.259 399.529 414.237 399.529C412.861 399.529 411.633 400.501 411.633 402.407C411.633 405.014 413.937 408.496 417.998 409.682Z" fill="white"/>
<path fill-rule="evenodd" clip-rule="evenodd" d="M439.389 397.731C441.682 397.731 443.87 396.254 445.113 397.796C445.098 396.632 444.296 396.257 443.216 396.201C441.187 396.096 438.451 397.189 437.55 394.131C437.55 394.131 436.146 395.21 436.816 396.625C437.219 397.475 438.304 397.731 439.389 397.731Z" fill="white"/>
<path fill-rule="evenodd" clip-rule="evenodd" d="M439.099 479.326C441.516 479.326 443.186 477.77 444.494 479.395C444.478 478.168 443.634 477.772 442.496 477.713C440.356 477.603 438.112 478.755 437.162 475.532C437.162 475.532 435.682 476.669 436.388 478.16C436.813 479.056 437.956 479.326 439.099 479.326Z" fill="white"/>
<path fill-rule="evenodd" clip-rule="evenodd" d="M522.048 438.697C519.027 438.697 520.439 442.527 518.287 442.527C516.136 442.527 517.548 438.697 514.526 438.697C513.15 438.697 511.922 439.669 511.922 441.575C511.922 444.182 514.226 447.664 518.287 448.85C522.348 447.664 524.653 444.182 524.653 441.575C524.653 439.669 523.425 438.697 522.048 438.697Z" fill="white"/>
<path fill-rule="evenodd" clip-rule="evenodd" d="M461.141 428.825C458.989 428.825 460.401 424.996 457.377 424.996C456.003 424.996 454.775 425.968 454.775 427.875C454.775 430.481 457.082 433.963 461.141 435.149C465.202 433.963 467.506 430.481 467.506 427.875C467.506 425.968 466.279 424.996 464.902 424.996C461.882 424.996 463.292 428.825 461.141 428.825Z" fill="white"/>
<path fill-rule="evenodd" clip-rule="evenodd" d="M461.141 390.267C465.202 389.081 467.506 385.599 467.506 382.993C467.506 381.086 466.279 380.114 464.902 380.114C461.882 380.114 463.292 383.945 461.141 383.945C458.989 383.945 460.401 380.114 457.377 380.114C456.003 380.114 454.775 381.086 454.775 382.993C454.775 385.599 457.082 389.081 461.141 390.267Z" fill="white"/>
<path fill-rule="evenodd" clip-rule="evenodd" d="M461.141 467.145C458.989 467.145 460.401 463.315 457.377 463.315C456.003 463.315 454.775 464.287 454.775 466.193C454.775 468.8 457.082 472.282 461.141 473.469C465.202 472.282 467.506 468.8 467.506 466.193C467.506 464.287 466.279 463.315 464.902 463.315C461.882 463.315 463.292 467.145 461.141 467.145Z" fill="white"/>
<path fill-rule="evenodd" clip-rule="evenodd" d="M507.074 476.966C504.052 476.966 505.464 480.797 503.312 480.797C501.16 480.797 502.571 476.966 499.549 476.966C498.175 476.966 496.945 477.939 496.945 479.845C496.945 482.452 499.252 485.934 503.312 487.12C507.373 485.934 509.678 482.452 509.678 479.845C509.678 477.939 508.45 476.966 507.074 476.966Z" fill="white"/>
<path fill-rule="evenodd" clip-rule="evenodd" d="M503.312 409.682C507.373 408.496 509.678 405.013 509.678 402.407C509.678 400.501 508.45 399.529 507.074 399.529C504.052 399.529 505.464 403.359 503.312 403.359C501.16 403.359 502.571 399.529 499.549 399.529C498.175 399.529 496.945 400.501 496.945 402.407C496.945 405.013 499.252 408.496 503.312 409.682Z" fill="white"/>
<path fill-rule="evenodd" clip-rule="evenodd" d="M451.774 389.907L453.517 386.628L450.467 387.809L448.454 385.444L446.441 387.809L443.391 386.628L445.133 389.907H451.774Z" fill="white"/>
<path fill-rule="evenodd" clip-rule="evenodd" d="M470.051 499.938C470.653 499.514 476.297 494.954 476.297 494.954C474.43 493.622 474.389 490.04 475.397 488.447C475.027 487.894 474.404 487.121 473.778 487.121C472.65 487.121 470.898 488.874 470.898 488.874L470.572 487.41C470.277 487.663 469.616 488.325 468.932 488.907C468.099 489.616 467.28 490.2 467.28 490.2C467.306 492.119 467.713 493.955 470.295 494.828L467.146 498.019C465.79 497.798 464.523 498.391 463.808 499.028C462.774 499.949 462.782 501.603 463.895 502.606C463.735 501.888 464.073 500.704 465.188 500.531C464.536 502.401 465.524 503.718 467.434 503.496C466.626 502.704 466.458 501.462 467.423 500.844C467.399 502.506 469.281 503.315 470.827 502.127C469.347 501.649 469.346 500.487 470.051 499.938Z" fill="white"/>
<path fill-rule="evenodd" clip-rule="evenodd" d="M451.489 471.181L453.346 467.685L450.096 468.945L447.95 466.424L445.804 468.945L442.553 467.685L444.41 471.181H451.489Z" fill="white"/>
<path fill-rule="evenodd" clip-rule="evenodd" d="M428.563 435.519C429.121 436.623 430.626 436.956 432.131 436.956C435.312 436.956 438.35 435.037 440.073 437.04C440.053 435.528 438.941 435.039 437.442 434.968C434.626 434.832 430.83 436.251 429.581 432.279C429.581 432.279 427.632 433.68 428.563 435.519Z" fill="white"/>
<path fill-rule="evenodd" clip-rule="evenodd" d="M444.597 420.241L441.879 423.232L437.762 421.738L440.114 425.883H449.079L451.43 421.738L447.314 423.232L444.597 420.241Z" fill="white"/>
<path fill-rule="evenodd" clip-rule="evenodd" d="M467.163 453.124C465.393 454.308 465.266 457.017 467.329 458.795C467.002 457.526 467.034 455.62 468.694 455.585C467.245 457.584 469.227 460.001 472.056 460.041C471.029 458.812 470.369 457.084 471.896 456.413C471.541 458.68 474.785 460.125 477.269 458.777C474.954 457.749 474.738 456.255 475.913 455.873C477.136 455.474 477.871 455.401 480.084 454.825C483.253 453.999 486.666 453.309 486.666 453.309C484.507 451.624 482.569 449.259 483.758 446.67C483.194 445.906 481.283 443.862 480.429 443.862C478.919 443.862 476.678 446.446 476.678 446.446L476.165 444.369C474.736 444.892 472.696 446.568 471.888 447.519C471.601 449.801 475.07 450.735 476.535 451.406L472.336 452.772C470.604 452.211 468.332 452.341 467.163 453.124Z" fill="white"/>
<path fill-rule="evenodd" clip-rule="evenodd" d="M441.511 430.223C440.788 430.223 440.378 429.761 440.378 428.733H444.309C444.309 428.733 442.671 430.223 441.511 430.223ZM512.196 454.177C512.196 454.177 510.651 453.305 508.106 450.605C505.426 447.762 504.372 444.643 504.372 444.643C499.273 444.769 496.058 440.189 494.276 438.167L494.301 438.169C495.76 438.331 498.443 438.416 499.65 438.416C504.071 438.416 506.899 436.222 506.899 432.765C506.899 429.249 504.016 427.306 499.121 427.306C489.058 427.306 487.838 428.524 478.723 428.524C476.367 428.524 475.142 427.086 475.142 425.321C475.142 423.556 476.82 422.278 479.133 422.278C485.491 422.278 488.766 423.803 495.997 423.803C502.102 423.803 504.844 423.163 508.588 420.572C512.441 417.905 513.658 415.885 513.162 415.269C512.665 414.652 510.492 415.255 506.995 417.325C502.556 419.954 501.608 421.105 496.383 421.105C490.195 421.105 486.591 419.37 478.815 419.37C474.664 419.37 471.471 421.721 471.471 425.455C471.471 428.948 474.225 431.477 478.722 431.477C487.78 431.477 489.501 430.201 499.262 430.201C502.019 430.201 503.359 431.481 503.359 432.955C503.359 434.287 502.316 435.573 499.549 435.573C493.87 435.573 490.379 434.24 485.002 434.221L484.998 434.219C484.984 434.219 484.969 434.22 484.954 434.22C484.932 434.22 484.911 434.219 484.888 434.219L484.894 434.222C473.493 434.272 462.42 442.467 453.539 442.563C453.539 442.563 453.966 440.62 453.693 438.281C452.488 437.147 450.757 436.289 448.535 435.764C450.045 435.363 451.885 435.541 453.339 436.056C453.266 435.427 453.118 434.715 452.97 434.36C451.593 433.217 449.833 432.675 447.857 432.331C449.026 431.994 450.941 431.891 452.572 432.28C452.301 430.196 450.404 428.012 449.138 427.409L440.228 427.396C440.228 427.396 435.523 428.086 435.019 428.832C434.648 429.38 435.22 432.148 436.417 433.231C437.867 432.293 439.155 432.038 439.951 432.038C441.156 432.038 441.639 433.124 441.639 434.677C441.639 436.229 440.552 438.647 439.085 438.647C437.49 438.647 436.371 438.189 435.528 437.598C434.416 438.824 434.528 440.911 435.165 441.103C435.587 441.236 437.342 441.278 438.514 440.714C435.564 443.531 433.662 448.488 432.985 453.247C432.985 453.247 423.03 456.901 415.829 456.884C413.596 453.414 408.574 453.559 406.957 457.132C408.054 456.35 409.76 456.287 410.55 457.394C407.288 457.393 405.773 460.455 407.831 462.405C407.627 461.209 409.577 459.746 411.055 460.358C409.059 461.56 409.602 464.613 412.452 465.579C411.842 463.752 412.915 462.198 415.282 461.982C423.301 463.052 438.869 462.025 446.509 460.612L449.581 457.761C466.329 454.418 471.237 441.384 479.336 441.384C482.19 441.384 484.099 444.127 486.639 446.48C488.308 448.025 490.533 449.303 492.459 449.631C495.064 450.075 498.054 449.787 500 449.536L504.716 454.095C502.684 454.686 502.014 456.259 502.097 457.649C502.194 459.282 503.509 460.671 505.425 461.096C504.832 460.197 504.471 458.298 505.993 457.547C506.005 460.386 508.345 461.847 510.986 460.66C509.417 459.96 508.541 458.352 509.618 457.067C510.431 459.333 513.518 460.093 515.143 457.763C511.485 457.051 512.196 454.177 512.196 454.177Z" fill="white"/>
<path fill-rule="evenodd" clip-rule="evenodd" d="M445.965 393.321C445.462 393.321 445.177 392.97 445.177 392.188H447.916C447.916 392.188 446.774 393.321 445.965 393.321ZM493.368 409.746C493.368 409.746 492.272 409.215 490.734 407.181C489.139 405.071 488.603 403.087 488.603 403.087C485.322 403.431 483.324 401.672 482.363 399.818C489.688 400.648 492.79 398.183 492.79 395.131C492.79 392.389 490.741 390.968 487.092 390.968C481.957 390.968 479.579 392.572 473.506 392.572C471.523 392.572 470.731 391.946 470.731 390.936C470.731 389.926 471.541 389.263 472.883 389.263C476.103 389.263 478.26 389.653 480.455 389.492C481.773 389.396 483.104 389.101 484.688 388.406C487.526 387.359 488.99 385.443 488.627 384.829C488.262 384.215 486.197 384.772 483.678 386.3C482.625 386.94 481.644 387.233 480.594 387.342C478.56 387.553 476.272 387.071 472.717 387.071C470.707 387.071 468.148 387.982 468.148 390.977C468.148 393.971 470.708 394.867 473.302 394.867C479.848 394.867 481.685 393.278 486.887 393.278C488.364 393.278 490.103 393.636 490.103 395.196C490.103 396.754 488.361 397.513 485.531 397.513C481.082 397.513 480.159 396.653 475.889 396.649L475.883 396.646C468.264 396.646 460.625 401.933 455.033 402.308C455.033 402.308 455.208 400.982 455.027 398.945C454.224 398.139 453.07 397.527 451.591 397.154C452.597 396.869 453.823 396.996 454.79 397.362C454.742 396.914 454.644 396.408 454.545 396.155C453.628 395.342 452.455 394.957 451.139 394.712C451.918 394.471 453.193 394.398 454.28 394.675C454.1 393.193 452.836 391.638 451.992 391.209L445.077 391.2C445.077 391.2 441.724 391.691 441.388 392.222C441.141 392.611 441.522 394.581 442.32 395.353C443.285 394.684 444.362 394.503 444.892 394.503C445.695 394.503 446.017 395.276 446.017 396.38C446.017 397.485 445.51 398.929 444.532 398.929C443.363 398.929 442.506 398.603 441.945 398.184C441.205 399.055 441.279 400.867 441.703 401.003C441.984 401.098 443.131 401.193 443.911 400.792C441.946 402.796 440.703 406.712 440.251 410.098C440.251 410.098 434.57 412.654 427.043 413.532C425.415 411.177 422.103 411.469 421.171 414.058C421.871 413.461 423.003 413.354 423.572 414.112C421.401 414.231 420.672 416.498 421.961 417.772C421.884 416.677 423.017 415.818 424.025 416.198C422.745 417.125 423.226 419.275 425.16 419.856C424.671 418.552 425.371 417.366 427.016 417.162V417.161C434.993 417.205 445.356 416.137 450.031 414.773L452.077 412.744C465.836 409.832 466.951 402.439 472.349 402.439C474.25 402.439 475.284 403.697 476.977 405.371C478.088 406.47 479.319 406.986 480.616 407.11C482.183 407.259 484.241 406.94 485.505 406.787L488.392 410.077C487.071 410.601 486.703 411.753 486.826 412.736C486.97 413.888 487.91 414.806 489.205 415.008C488.766 414.401 488.435 413.073 489.408 412.46C489.555 414.474 491.181 415.389 492.879 414.409C491.801 413.994 491.142 412.899 491.794 411.931C492.445 413.496 494.533 413.875 495.499 412.137C493.034 411.822 493.368 409.746 493.368 409.746Z" fill="white"/>
<path fill-rule="evenodd" clip-rule="evenodd" d="M445.212 474.586C444.696 474.586 444.404 474.233 444.404 473.45H447.21C447.21 473.45 446.04 474.586 445.212 474.586ZM495.091 492.816C495.091 492.816 493.788 491.827 492.17 490.162C490.625 488.573 489.453 486.693 489.453 486.693C486.564 487.535 483.907 482.896 483.524 482.194C483.633 482.209 483.739 482.224 483.851 482.24C491.158 483.276 493.509 480.718 493.509 477.939C493.509 475.16 491.46 473.662 487.811 473.662C482.676 473.662 481.419 474.307 475.347 474.307C473.363 474.307 472.57 473.562 472.57 472.448C472.57 471.333 473.628 470.76 474.97 470.76C477.908 470.76 482.712 471.476 487.166 471.234C490.917 471.029 492.856 470.234 495.054 468.852C497.53 467.293 498.078 465.527 497.778 465.18C497.566 464.936 496.413 464.795 493.379 466.908C491.256 468.388 490.013 468.966 487.066 469.156C483.485 469.387 479.255 468.568 474.804 468.568C472.793 468.568 469.989 469.496 469.989 472.489C469.989 475.481 472.548 476.603 475.142 476.603C481.689 476.603 482.405 475.972 487.605 475.972C489.082 475.972 490.822 476.362 490.822 477.85C490.822 479.338 489.507 479.9 487.555 479.9C484.833 479.9 482.93 479.546 481.045 479.269C479.887 479.071 478.486 478.908 476.659 478.908C468.726 478.908 461.584 483.274 454.612 483.796C454.612 483.796 454.857 482.09 454.619 480.54C453.784 479.7 452.582 479.064 451.041 478.675C452.09 478.378 453.365 478.511 454.373 478.892C454.323 478.425 454.22 477.898 454.118 477.636C453.163 476.789 451.941 476.387 450.572 476.133C451.382 475.882 452.816 475.886 453.947 476.173C453.654 474.655 452.338 472.933 451.459 472.486L444.301 472.476C444.301 472.476 440.837 472.988 440.488 473.54C440.231 473.946 440.627 475.996 441.457 476.8C442.462 476.104 443.557 475.915 444.108 475.915C444.944 475.915 445.279 476.719 445.279 477.869C445.279 479.019 444.752 480.497 443.734 480.497C442.415 480.497 441.651 480.157 441.066 479.72C440.295 480.628 440.371 482.182 440.816 482.316C441.353 482.478 442.525 482.446 443.337 482.029C441.292 484.115 440.556 487.53 440.085 491.056C440.085 491.056 433.916 491.549 428.693 491.63C427.28 488.888 423.425 489.183 422.872 491.697C423.63 491.111 424.814 491.058 425.367 491.876C423.103 491.889 422.228 494.213 423.505 495.604C423.358 494.717 424.704 493.624 425.734 494.071C424.353 494.97 424.745 497.233 426.729 497.935C426.286 496.553 427.064 495.371 428.787 495.242C433.94 496.469 443.674 496.926 450.012 496.43L452.143 494.317C467.651 491.265 468.359 484.761 472.775 484.761C474.6 484.761 475.679 485.721 477.087 487.284C478.348 488.686 479.979 490.19 481.475 490.354C483.058 490.526 484.493 490.44 486.748 490.166L490.289 493.674C488.952 494.34 488.557 495.397 488.699 496.482C488.847 497.624 489.845 498.606 491.135 498.807C490.679 498.175 490.328 496.817 491.343 496.179C491.495 498.276 493.193 499.205 494.96 498.184C493.839 497.752 493.083 496.662 493.763 495.654C494.44 497.284 496.839 497.539 497.797 495.544C495.083 495.863 495.091 492.816 495.091 492.816Z" fill="white"/>
<path fill-rule="evenodd" clip-rule="evenodd" d="M440.293 403.234C439.323 402.781 436.981 401.691 435.606 399.706C434.116 397.556 432.276 394.879 432.276 394.879C433.592 391.746 431.329 388.859 428.435 390.524C429.592 390.572 430.265 391.303 430.047 392.328C428.789 390.8 426.364 391.376 425.962 393.209C426.873 392.676 428.593 392.931 428.619 394.075C426.609 393.428 425.168 394.98 425.526 396.424C426.368 395.522 428.154 395.383 429.313 397.82C430.536 400.388 433.011 404.319 434.221 405.929C435.214 407.251 437.069 408.608 438.45 409.091C438.803 407.075 439.423 404.967 440.293 403.234Z" fill="white"/>
<path fill-rule="evenodd" clip-rule="evenodd" d="M440.293 403.234C439.323 402.781 436.981 401.691 435.606 399.706C434.116 397.556 432.276 394.879 432.276 394.879C433.592 391.746 431.329 388.859 428.435 390.524C429.592 390.572 430.265 391.303 430.047 392.328C428.789 390.8 426.364 391.376 425.962 393.209C426.873 392.676 428.593 392.931 428.619 394.075C426.609 393.428 425.168 394.98 425.526 396.424C426.368 395.522 428.154 395.383 429.313 397.82C430.536 400.388 433.036 404.302 434.221 405.929" fill="white"/>
<path fill-rule="evenodd" clip-rule="evenodd" d="M468.497 414.535C469.176 414.029 473.943 412.571 476.734 411.685C475.295 410.486 474.372 408.285 475.272 406.291C474.843 405.777 473.613 404.407 472.882 404.407C471.935 404.407 470.501 406.245 470.501 406.245L470.176 404.725C469.295 405.106 468.034 406.249 467.257 406.962C467.115 408.493 467.807 409.42 470.039 410.408L465.916 412.474C464.762 412.074 463.256 412.451 462.477 413.007C461.298 413.85 460.952 415.586 462.326 416.85C462.108 415.948 462.565 414.592 463.671 414.567C462.706 415.988 463.591 417.708 465.476 417.737C464.792 416.863 464.786 415.633 465.804 415.156C465.569 416.769 467.294 417.796 468.949 416.838C467.406 416.107 467.832 415.031 468.497 414.535Z" fill="white"/>
<path fill-rule="evenodd" clip-rule="evenodd" d="M461 369C419.578 369 386 402.578 386 444C386 485.422 419.578 519 461 519C502.422 519 536 485.422 536 444C536 402.578 502.422 369 461 369ZM461 373.5C499.874 373.5 531.5 405.126 531.5 444C531.5 482.875 499.874 514.501 461 514.501C422.126 514.501 390.5 482.875 390.5 444C390.5 405.126 422.126 373.5 461 373.5Z" fill="white"/>
</g>
<defs>
<clipPath id="clip0_175_6">
<rect width="900" height="982" fill="white"/>
</clipPath>
</defs>
</svg>
