<svg xmlns="http://www.w3.org/2000/svg" viewBox="0 0 187 158">
  <g fill="#A6192E" fill-rule="evenodd">
    <path d="M78.764985 91.96134806c-.629214-.437303-2.365843-1.747326-3.402787-3.243595-1.062741-1.534023-2.608719-3.676495-2.608719-3.676495.938787-2.234966-.675775-4.295011-2.739595-3.107056.824898.03461 1.304988.555596 1.149573 1.287371-.897888-1.090427-2.627596-.679551-2.914517.627955.649977-.380674 1.876944-.198202 1.89582.618517-1.433978-.461843-2.462112.645573-2.206652 1.675595.60027-.643685 1.874427-.742472 2.701843.995416.87209 1.832899 2.593618 5.000989 3.500944 6.251236 1.047011 1.443416 2.966112 2.464629 3.400899 2.680449.243505-1.508224.597123-2.941573 1.223191-4.109393"/>
    <path d="M72.219277 68.49357306c.371236-1.749214 1.196135-4.031371 2.230562-5.618877-.772675-.385078-2.939057-1.296809-4.452315-2.769168-2.235596-2.176449-4.741753-5.716404-4.741753-5.716404.915506-3.316585-1.765573-5.459057-4.385618-3.774652 1.036944.01258 1.873798.571955 1.794517 1.569887-1.369168-1.018696-3.482067-.534831-4.052764 1.221304 1.069663-.405214 2.272719-.379416 2.601169.601528-2.051866-.124584-2.757843 1.478652-2.472809 2.562786.982202-.867685 3.076224-.698426 3.621752.38445 1.415731 2.811326 4.835506 7.914247 5.548405 8.684404 1.694472 1.829753 4.308854 2.854742 4.308854 2.854742"/>
    <path d="M52.72058 66.96773006c2.895641-.845663 4.541663-3.330427 4.541663-5.189753 0-1.360359-.876494-2.053752-1.858696-2.053752-2.155057 0-1.147686 2.732674-2.682967 2.732674-1.535281 0-.52791-2.732674-2.6848537-2.732674-.9803147 0-1.8561798.693393-1.8561798 2.053752 0 1.859326 1.6441348 4.34409 4.5410335 5.189753"/>
    <path d="M63.03276 94.27119106c2.896899-.846292 4.541663-3.330427 4.541663-5.190382 0-1.35973-.876495-2.053124-1.858068-2.053124-2.154426 0-1.148314 2.732674-2.683595 2.732674-1.534652 0-.527281-2.732674-2.682966-2.732674-.982203 0-1.858068.693394-1.858068 2.053124 0 1.859955 1.644135 4.34409 4.541034 5.190382"/>
    <path d="M63.03276 39.02435906c2.896899-.846292 4.541663-3.330427 4.541663-5.190382 0-1.35973-.876495-2.053752-1.858068-2.053752-2.154426 0-1.148314 2.732674-2.683595 2.732674-1.534652 0-.527281-2.732674-2.682966-2.732674-.982203 0-1.858068.694022-1.858068 2.053752 0 1.859955 1.644135 4.34409 4.541034 5.190382"/>
    <path d="M78.293704 30.49788706c1.635955 0 3.197034-1.053932 4.083595.04656-.0107-.830562-.582651-1.098606-1.352809-1.138247-1.44782-.07488-3.39964.704719-4.042696-1.476764 0 0-1.001708.769528-.523506 1.779416.287551.606562 1.061483.789033 1.835416.789033"/>
    <path d="M78.087322 88.71083106c1.724045 0 2.915146-1.110561 3.848899.04908-.01133-.875236-.614113-1.157753-1.425798-1.19991-1.526472-.07865-3.12782.743101-3.805483-1.556045 0 0-1.055821.811056-.551821 1.875056.302652.639281 1.118742.83182 1.934203.83182"/>
    <path d="M137.266108 59.72422506c-2.155685 0-1.148314 2.732674-2.683595 2.732674-1.534652 0-.527281-2.732674-2.682967-2.732674-.982202 0-1.858067.693393-1.858067 2.053752 0 1.859956 1.644135 4.34409 4.541034 5.189753 2.897528-.845663 4.541663-3.329797 4.541663-5.189753 0-1.360359-.875865-2.053752-1.858068-2.053752"/>
    <path d="M93.812625 52.68143806c-1.535281 0-.52791-2.732045-2.685483-2.732045-.980315 0-1.85618.693393-1.85618 2.053753 0 1.859326 1.646023 4.343461 4.541663 5.189753 2.896899-.846292 4.541034-3.330427 4.541034-5.189753 0-1.36036-.875865-2.053753-1.858068-2.053753-2.154427 0-1.148314 2.732045-2.682966 2.732045"/>
    <path d="M93.812625 25.17285406c2.896899-.846292 4.541034-3.330427 4.541034-5.189753 0-1.3603595-.875865-2.054382-1.858068-2.054382-2.154427 0-1.148314 2.733303-2.682966 2.733303-1.535281 0-.52791-2.733303-2.685483-2.733303-.980315 0-1.85618.6940225-1.85618 2.054382 0 1.859326 1.646023 4.343461 4.541663 5.189753"/>
    <path d="M93.812625 80.02013506c-1.535281 0-.52791-2.732674-2.685483-2.732674-.980315 0-1.85618.694022-1.85618 2.053752 0 1.859955 1.646023 4.34409 4.541663 5.190382 2.896899-.846292 4.541034-3.330427 4.541034-5.190382 0-1.35973-.875865-2.053752-1.858068-2.053752-2.154427 0-1.148314 2.732674-2.682966 2.732674"/>
    <path d="M126.582693 87.02705606c-2.155686 0-1.148315 2.733303-2.683596 2.733303-1.535281 0-.529168-2.733303-2.684854-2.733303-.980314 0-1.858067.694023-1.858067 2.053753 0 1.859955 1.646022 4.34409 4.542921 5.190382 2.896899-.846292 4.541663-3.330427 4.541663-5.190382 0-1.35973-.876494-2.053753-1.858067-2.053753"/>
    <path d="M123.899097 39.02435906c2.896899-.846292 4.541663-3.331056 4.541663-5.190382 0-1.35973-.876494-2.053752-1.858067-2.053752-2.155686 0-1.148315 2.732674-2.683596 2.732674-1.535281 0-.529168-2.732674-2.684854-2.732674-.980314 0-1.858067.694022-1.858067 2.053752 0 1.859326 1.646022 4.34409 4.542921 5.190382"/>
    <path d="M87.1297487 24.91613476l1.2433259-2.3394157-2.1758203.8425169-1.4358651-1.6875506-1.4364944 1.6875506-2.1758202-.8425169 1.2426966 2.3394157h4.7379775"/>
    <path d="M100.16894 103.41555006c.429753-.302022 4.45609-3.555685 4.45609-3.555685-1.331416-.950112-1.360989-3.505348-.641798-4.642337-.26427-.394517-.708494-.945708-1.155236-.945708-.804764 0-2.054382 1.250876-2.054382 1.250876l-.232809-1.044494c-.210157.179955-.682068.652494-1.169708 1.067775-.594607.505888-1.178517.922427-1.178517.922427.01825 1.369169.308315 2.679191 2.150652 3.302113l-2.246292 2.276494c-.967731-.157932-1.871281.264899-2.381573.71982-.738068.656899-.731776 1.836674.06166 2.55272-.113888-.51218.127101-1.357214.922427-1.48054-.464989 1.333933.240359 2.273978 1.602606 2.115416-.576359-.565034-.69591-1.451596-.0075-1.892045-.01762 1.185438 1.325123 1.763056 2.428135.914876-1.055821-.340404-1.05645-1.169707-.553708-1.561708"/>
    <path d="M86.9265128 82.89941566l1.3244944-2.4942022-2.3186517.899146-1.5308764-1.7989213-1.5308764 1.7989213-2.3192809-.899146 1.3251236 2.4942022h5.0500674"/>
    <path d="M70.570108 57.45716806c.398292.787776 1.471731 1.024989 2.545798 1.024989 2.269573 0 4.436584-1.369168 5.666067.06041-.01447-1.079101-.80791-1.427686-1.876943-1.478652-2.009079-.0969-4.717214.915506-5.608809-1.918472 0 0-1.389933.99982-.726113 2.31173"/>
    <path d="M82.0092094 46.55730336l-1.939236 2.1336629-2.9365393-1.0658876 1.6774832 2.9573033h6.395955l1.6774832-2.9573033-2.9365394 1.0658876-1.9386067-2.1336629"/>
    <path d="M98.108895 70.01689906c-1.262832.845033-1.353438 2.777977.118292 4.045842-.233438-.904809-.210157-2.264539.974022-2.289707-1.033797 1.425797.380045 3.150472 2.398562 3.178786-.733034-.876494-1.203685-2.109753-.114517-2.587955-.252944 1.617079 2.061304 2.64773 3.833798 1.686292-1.651685-.733034-1.805843-1.798921-.96773-2.072.872719-.284404 1.396854-.336629 2.97555-.747505 2.261394-.588944 4.69645-1.081618 4.69645-1.081618-1.540944-1.201798-2.923326-2.889349-2.075146-4.73672-.402068-.544898-1.765573-2.002786-2.374652-2.002786-1.077214 0-2.676674 1.842966-2.676674 1.842966l-.365573-1.481798c-1.019326.373124-2.474697 1.569259-3.051686 2.247551-.204494 1.628405 2.270203 2.294742 3.315326 2.773573l-2.995685.974023c-1.235775-.40018-2.856629-.307057-3.690337.251056"/>
    <path d="M79.807591 53.67874106c-.515955 0-.80791-.329707-.80791-1.062741h2.804405s-1.16845 1.062741-1.996495 1.062741zm50.429574 17.089439s-1.102383-.622293-2.918293-2.548315c-1.91155-2.027955-2.66346-4.253483-2.66346-4.253483-3.638113.08998-5.931596-3.177528-7.203236-4.620315l.01762.0013c1.041348.115775 2.955415.176179 3.816179.176179 3.154248 0 5.172135-1.564853 5.172135-4.03137 0-2.508045-2.056899-3.894832-5.549033-3.894832-7.179326 0-8.050158.868944-14.553079.868944-1.680629 0-2.554607-1.025618-2.554607-2.284674 0-1.259685 1.197393-2.171416 2.847191-2.171416 4.536 0 6.872899 1.08791 12.03182 1.08791 4.355416 0 6.311641-.45618 8.982652-2.304809 2.749034-1.902741 3.616719-3.34364 3.263101-3.78346-.354876-.439821-1.904629-.01007-4.39946 1.467326-3.167461 1.875056-3.843866 2.696179-7.571326 2.696179-4.414562 0-6.986158-1.237663-12.533304-1.237663-2.961708 0-5.23946 1.677483-5.23946 4.341573 0 2.491686 1.964404 4.29627 5.172764 4.29627 6.462022 0 7.690247-.910472 14.653752-.910472 1.966922 0 2.923326.912989 2.923326 1.965034 0 .950112-.744359 1.867505-2.718202 1.867505-4.051505 0-6.541933-.950741-10.378247-.964584l-.0031-.0013c-.01007 0-.02076.000629-.03146.000629-.01573 0-.0302-.000629-.04719-.000629l.0044.0019c-8.133843.03587-16.033618 5.882517-22.369798 5.951102 0 0 .304539-1.386158.110112-3.055461-.859505-.80854-2.094651-1.420764-3.67964-1.795146 1.077213-.286292 2.389753-.159191 3.426696.208269-.05159-.449258-.157303-.957033-.263011-1.209977-.982202-.815461-2.238112-1.202427-3.64755-1.44782.833708-.24036 2.200359-.313978 3.363775-.0365-.193169-1.486831-1.546607-3.044764-2.450157-3.475146l-6.356315-.0088s-3.356854.492045-3.716764 1.02436c-.26427.390741.143461 2.365213.997303 3.138517 1.034427-.669483 1.953708-.851326 2.521259-.851326.860135 0 1.204314.774562 1.204314 1.882607 0 1.107415-.775191 2.832089-1.822202 2.832089-1.137618 0-1.93609-.326561-2.537618-.748134-.792809.874606-.712899 2.363325-.258607 2.500494.300764.09501 1.552899.125213 2.389124-.277483-2.104719 2.009708-3.461303 5.546517-3.944539 8.941753 0 0-7.101933 2.606831-12.239461 2.594247-1.593169-2.475326-5.17591-2.371506-6.329888.177438.782742-.558112 1.999641-.602787 2.563416.186877-2.327461-.00063-3.40782 2.183999-1.939865 3.57519-.145348-.853213 1.245843-1.897078 2.300404-1.461033-1.42391.857618-1.036943 3.035955.996675 3.724944-.435416-1.303101.330337-2.411776 2.019146-2.565933 5.720809.763236 16.827685.03083 22.277932-.977169l2.191551-2.034247c11.948764-2.385348 15.450337-11.683865 21.228404-11.683865 2.036135 0 3.398382 1.956854 5.210517 3.635596 1.190472 1.102382 2.777978 2.014112 4.15218 2.248179 1.858697.316495 3.99173.111371 5.379775-.06795l3.365034 3.252405c-1.449708.421573-1.92791 1.54409-1.868764 2.53573.06921 1.164674 1.007371 2.155686 2.374022 2.458966-.422831-.641168-.680179-1.995865.405214-2.531955.0088 2.025439 1.678112 3.068045 3.562607 2.221124-1.119371-.499595-1.74418-1.646652-.975911-2.563416.579506 1.61645 2.782383 2.158832 3.941394.49645-2.609349-.507776-2.102202-2.558382-2.102202-2.558382z"/>
    <path d="M82.985749 27.35182006c-.359281 0-.562517-.251056-.562517-.808539h1.954337s-.814832.808539-1.39182.808539zm33.818337 11.717843s-.781483-.378787-1.878832-1.829753c-1.138247-1.505708-1.520179-2.920809-1.520179-2.920809-2.341304.245393-3.766472-1.009888-4.452315-2.332494 5.226247.59209 7.439191-1.166562 7.439191-3.343641 0-1.956225-1.461663-2.969887-4.065348-2.969887-3.663281 0-5.359641 1.14391-9.692405 1.14391-1.414472 0-1.979505-.446742-1.979505-1.167191 0-.72045.577617-1.193618 1.53528-1.193618 2.29663 0 3.835686.278112 5.401798.163595.940045-.06858 1.890157-.278741 3.020225-.774562 2.024809-.747505 3.069303-2.114157 2.810067-2.552089-.260494-.437933-1.733483-.0409-3.531146 1.049528-.751281.456179-1.450966.665707-2.19973.743101-1.451596.151011-3.083775-.193169-5.620135-.193169-1.433977 0-3.259326.649978-3.259326 2.786787 0 2.136179 1.825978 2.77546 3.677124 2.77546 4.670022 0 5.980674-1.133842 9.691775-1.133842 1.053933 0 2.294113.25546 2.294113 1.36791 0 1.11182-1.242697 1.653573-3.261214 1.653573-3.174382 0-3.832539-.614113-6.879191-.616629l-.0044-.0019c-5.435775 0-10.885393 3.771506-14.875235 4.038921 0 0 .125213-.945708-.0044-2.399191-.572584-.575101-1.395595-1.011146-2.451416-1.277303.717933-.203865 1.59254-.113258 2.282787.147865-.03461-.31964-.10445-.68018-.174921-.860764-.654383-.580135-1.491236-.855101-2.430023-1.029393.555595-.171776 1.465438-.224 2.241258-.02643-.128988-1.057708-1.030651-2.167011-1.632808-2.472809l-4.933034-.0063s-2.39227.349842-2.632.728629c-.17618.278112.09564 1.683146.664449 2.233708.688989-.476944 1.457259-.605933 1.835416-.605933.572584 0 .802247.551191.802247 1.338966 0 .788405-.361798 1.818427-1.058966 1.818427-.834337 0-1.445304-.232179-1.846112-.531685-.527911.621663-.475057 1.914067-.172405 2.011596.200719.06733 1.018697.13528 1.575551-.151012-1.402517 1.430203-2.289079 4.22391-2.611236 6.639461 0 0-4.053394 1.823461-9.423102 2.450157-1.161528-1.68-3.524854-1.47173-4.189303.375011.498966-.425977 1.306876-.502112 1.712719.03838-1.548494.08494-2.068854 1.702651-1.149573 2.611236-.05474-.780854.753798-1.393708 1.472989-1.122517-.913618.661303-.570068 2.194696.809798 2.609348-.349214-.929978.150382-1.77627 1.323865-1.921618v-.000629c5.691236.03146 13.084494-.730517 16.419955-1.70391l1.459775-1.447821c9.815731-2.077033 10.611686-7.35173 14.462472-7.35173 1.355955 0 2.094023.897258 3.301483 2.091506.792809.784629 1.671191 1.152719 2.596764 1.240809 1.117483.106337 2.586068-.121439 3.487731-.230292l2.060045 2.346966c-.942562.374382-1.205573 1.196135-1.117484 1.897078.102562.822383.773304 1.476765 1.696989 1.620855-.312719-.432899-.549303-1.380495.145348-1.817798.10445 1.437123 1.26472 2.089618 2.475955 1.390561-.768898-.29573-1.23955-1.077213-.773932-1.768089.464359 1.116854 1.954337 1.387415 2.643326.147236-1.758652-.22463-1.520809-1.705798-1.520809-1.705798z"/>
    <path d="M82.4484 85.32880906c-.36809 0-.576359-.251686-.576359-.810427h2.001528s-.834337.810427-1.425169.810427zm35.585169 13.005843s-.929348-.705349-2.083955-1.893304c-1.102382-1.133842-1.937978-2.474696-1.937978-2.474696-2.061303.600269-3.957123-2.709394-4.230202-3.209618.07739.0107.153528.02139.233438.03272 5.213034.738696 6.890517-1.086023 6.890517-3.068674 0-1.982652-1.462292-3.051057-4.065348-3.051057-3.66391 0-4.56054.459955-8.892674.459955-1.415101 0-1.980764-.531685-1.980764-1.326382 0-.795325.754427-1.204314 1.71209-1.204314 2.09591 0 5.523235.510921 8.701393.337887 2.675416-.145977 4.059056-.712898 5.627056-1.698876 1.766831-1.112449 2.157573-2.372135 1.94364-2.620045-.15164-.173663-.974022-.274337-3.138516 1.233258-1.514517 1.055821-2.401708 1.467956-4.50391 1.603236-2.554607.164854-5.572944-.419056-8.747956-.419056-1.434606 0-3.435505.661933-3.435505 2.796854 0 2.134922 1.825977 2.935281 3.676494 2.935281 4.670652 0 5.181573-.449888 8.891416-.449888 1.053932 0 2.295371.278113 2.295371 1.339596s-.938158 1.462921-2.330607 1.462921c-1.942382 0-3.299596-.252943-4.644854-.450517-.826157-.140943-1.825348-.257348-3.129079-.257348-5.659775 0-10.755146 3.114607-15.729078 3.487101 0 0 .174921-1.216899.005-2.323056-.595865-.599011-1.453483-1.052674-2.552719-1.330157.748135-.212045 1.657978-.117663 2.377169.154157-.03587-.332854-.108854-.708494-.181843-.896-.681438-.604045-1.552899-.890966-2.530067-1.07218.578247-.178696 1.601348-.176179 2.408.02894-.208899-1.083506-1.147686-2.31173-1.775012-2.630741l-5.106696-.0069s-2.471551.364944-2.720719.758832c-.183101.290067.09942 1.752359.691505 2.325573.717304-.49645 1.498158-.631101 1.891416-.631101.596495 0 .835596.573842.835596 1.394337 0 .820494-.37627 1.874427-1.102382 1.874427-.941304 0-1.486203-.242248-1.903371-.554337-.549933.648089-.49582 1.756764-.178697 1.852404.383191.115146 1.219416.09249 1.798922-.205124-1.459146 1.48872-1.98454 3.925034-2.319911 6.44063 0 0-4.401348.35173-8.12755.408988-1.008-1.955595-3.758922-1.745438-4.153438.04782.541123-.417798 1.385528-.455551 1.780674.12773-1.61582.0094-2.24 1.667416-1.328899 2.659685-.105079-.632359.85573-1.412584 1.590022-1.093573-.984719.641798-.705348 2.255731.710382 2.757214-.315865-.985978.239102-1.829753 1.467955-1.921618 3.676495.875236 10.621124 1.201168 15.142652.84755l1.52018-1.507595c11.06409-2.177079 11.569348-6.817528 14.71982-6.817528 1.301843 0 2.072.685213 3.076225 1.80018.899775 1.000449 2.06382 2.073258 3.130966 2.190292 1.129438.122696 2.153169.06103 3.762068-.134023l2.526292 2.502382c-.953888.475056-1.235776 1.229483-1.134472 2.003416.105708.814831.817348 1.515146 1.737887 1.658607-.325303-.450517-.57573-1.419506.148495-1.875056.108225 1.496269 1.319461 2.158831 2.580404 1.430831-.79973-.308315-1.339595-1.086022-.853842-1.805213.482606 1.162786 2.194067 1.345258 2.877393-.07865-1.93609.227775-1.930427-1.946157-1.930427-1.946157z"/>
    <path d="M78.938648 34.42355006c-.691506-.322786-2.362697-1.100494-3.343641-2.516854-1.062741-1.534022-2.37591-3.443685-2.37591-3.443685.938787-2.234966-.675775-4.295011-2.740225-3.107056.825528.03461 1.305618.555595 1.150203 1.287371-.897888-1.090427-2.627596-.679551-2.914517.627955.649977-.380045 1.876943-.198202 1.89582.618517-1.433978-.461843-2.462112.645573-2.206652 1.675595.60027-.643685 1.874427-.742472 2.701843.996045.87209 1.83227 2.638292 4.636674 3.500944 5.784989.708494.943191 2.032359 1.91155 3.017708 2.25573.251685-1.438382.694022-2.942202 1.314427-4.178607"/>
    <path d="M78.938648 34.42355006c-.691506-.322786-2.362697-1.100494-3.343641-2.516854-1.062741-1.534022-2.37591-3.443685-2.37591-3.443685.938787-2.234966-.675775-4.295011-2.740225-3.107056.825528.03461 1.305618.555595 1.150203 1.287371-.897888-1.090427-2.627596-.679551-2.914517.627955.649977-.380045 1.876943-.198202 1.89582.618517-1.433978-.461843-2.462112.645573-2.206652 1.675595.60027-.643685 1.874427-.742472 2.701843.996045.87209 1.83227 2.65591 4.62409 3.500944 5.784989"/>
    <path d="M99.060266 42.48629206c.484494-.361169 3.886022-1.401258 5.876853-2.032989-1.026876-.85573-1.685033-2.425618-1.043235-3.848269-.305798-.366832-1.183551-1.344-1.70454-1.344-.675775 0-1.698876 1.31128-1.698876 1.31128l-.23218-1.084764c-.628584.271821-1.52836 1.087281-2.082697 1.596315-.100674 1.091685.39263 1.753618 1.985169 2.458337l-2.941573 1.473618c-.82364-.285034-1.897708-.01636-2.453303.380674-.841259.601528-1.087911 1.83982-.108225 2.741483-.155416-.643685.170517-1.610786.96018-1.629033-.688989 1.014292-.05726 2.241258 1.28737 2.262022-.488269-.62355-.492044-1.501303.234068-1.841708-.168 1.150832 1.062741 1.883866 2.243775 1.19991-1.100494-.521618-.796584-1.289258-.322786-1.642876"/>
    <path d="M93.711951 9.99999996c-29.551641 0-53.50768542 23.9560451-53.50768542 53.5076851 0 29.551641 23.95604442 53.507684 53.50768542 53.507684 29.55164 0 53.507682-23.956043 53.507682-53.507684 0-29.55164-23.956042-53.5076851-53.507682-53.5076851zm0 3.2102472c27.733843 0 50.297442 22.5635959 50.297442 50.2974379 0 27.734472-22.563599 50.298064-50.297442 50.298064-27.733843 0-50.2974382-22.563592-50.2974382-50.298064 0-27.733842 22.5635952-50.2974379 50.2974382-50.2974379z"/>
    <g>
      <path d="M22.1992695 135.03656925l-.1762828.15495318-7.31981269-.28857678v4.23705993l5.96663859-.31053371.7766479 1.3738764-.7766479 1.37638577-5.96663859-.31053371v4.21322093l1.9284457.4441574v1.8406179H9.99999986v-1.8406179l1.93032771-.4441574v-10.51297748l-1.93032771-.4441573v-1.83999064H22.1992695v2.35127341"/>
      <path d="M35.914822 140.22530516c0-3.3700749-1.175637-5.3223595-4.41397-5.3223595s-4.41397 1.9522846-4.41397 5.3223595c0 3.3713299 1.175637 5.3242419 4.41397 5.3242419s4.41397-1.952912 4.41397-5.3242419zm-11.710571 0c0-5.1454494 2.483642-7.76208797 7.296601-7.76208797 4.812959 0 7.297856 2.61663857 7.297856 7.76208797 0 5.1467039-2.484897 7.7639699-7.297856 7.7639699s-7.296601-2.617266-7.296601-7.7639699z"/>
      <path d="M52.6039699 145.41592316v2.3512734H41.1813482v-1.8406179l1.9284457-.4441574v-10.51297748l-1.9284457-.4441573v-1.83999064h6.6316198v1.83999064l-1.929073.4441573v10.58010298l6.5651217-.2885768.1549532.1549532"/>
      <path d="M70.243539 145.92657906v1.840618h-4.079597c-.865103-2.793549-2.329944-5.056995-3.90457-6.6767889-.865103.8431461-1.752162 1.5746259-2.617265 2.2176499v4.459139H54.93956v-1.840618l1.930327-.444158v-10.5129773l-1.930327-.4441573v-1.83999062h4.702547v7.69496252c2.395187-1.9955711 4.304185-4.4352996 5.723857-7.69496252h4.057641v1.95228462l-2.174364.4203184c-.908389 1.4416292-2.017528 2.8826311-3.193164 4.1918914 1.641751 1.6637078 3.171207 3.7922748 4.41397 6.3217138l1.773492.355075"/>
      <path d="M77.6630991 134.90294565v4.10343633l5.9666386-.31116105.7766479 1.37450375-.7766479 1.37638577-5.9666386-.31116105v4.41459736l7.3198127-.2885768.1769102.1549532v2.3512734H72.959925v-1.8406179l1.930955-.4441574v-10.51297748l-1.930955-.4441573v-1.83999064h12.199897v2.35127341l-.1769102.15495318-7.3198127-.28857678"/>
      <path d="M100.6262826 135.03656925l-.1317415.15495318-4.989869-.28857678v10.57947561l1.9290731.4441574v1.8406179H90.801498v-1.8406179l1.929073-.4441574v-10.57947561l-4.9898689.28857678-.1336236-.15495318v-2.35127341h13.0192041v2.35127341"/>
      <path d="M108.0439605 134.96944378v10.51297748l1.9290735.4441574v1.8406179h-6.6322476v-1.8406179l1.9303277-.4441574v-10.51297748l-1.9303277-.4441573v-1.83999064h6.6322476v1.83999064l-1.9290735.4441573"/>
      <path d="M130.163998 134.52528648l-1.930328.4441573v12.79775278h-3.283502l-6.96411-11.9558614v9.6710861l1.641751.4441574v1.8406179h-6.232631v-1.8406179l1.929073-.4441574v-10.51297748l-1.929073-.4441573v-1.83999064h5.656105l6.52058 11.17733142v-8.89318348l-1.641751-.4441573v-1.83999064h6.233886v1.83999064"/>
      <path d="M146.519396 146.96859206l-2.28414 1.020683c-.28733-.267247-.59786-.621067-.82057-1.065224-.81993.465486-2.17248 1.043895-3.88073 1.043895-4.10343 0-7.27464-1.820544-7.27464-7.8982214 0-5.3436891 2.86005-7.60650747 7.71692-7.60650747 1.93095 0 3.48362.10978464 5.12412.48744382v2.55014045l-.19887.1336236c-1.57525-.4209457-3.01625-.6649813-4.90141-.6649813-2.86318 0-4.88071.9535581-4.88071 5.1241199 0 4.4359274 1.88578 5.4340264 4.79163 5.4340264 1.19759 0 2.30673-.26662 3.21512-.553942v-3.5055807l-3.34875.1549532-.66435-1.3525468.66435-1.3525468 6.01055.2653651v5.72323c0 .886433.37766 1.5075.73148 2.06207"/>
      <path d="M154.048745 134.90294565v4.10343633l5.965384-.31116105.776648 1.37450375-.776648 1.37638577-5.965384-.31116105v4.41459736l7.317931-.2885768.178792.1549532v2.3512734h-12.199897v-1.8406179l1.929073-.4441574v-10.51297748l-1.929073-.4441573v-1.83999064h12.199897v2.35127341l-.178792.15495318-7.317931-.28857678"/>
      <path d="M177.012556 135.03656925l-.133624.15495318-4.989868-.28857678v10.57947561l1.928445.4441574v1.8406179h-6.63162v-1.8406179l1.930955-.4441574v-10.57947561l-4.989868.28857678-.134251-.15495318v-2.35127341h13.019831v2.35127341"/>
    </g>
  </g>
</svg>
